<?xml version="1.0" encoding="UTF-8" standalone="no"?>
<!DOCTYPE svg PUBLIC "-//W3C//DTD SVG 1.1//EN" "http://www.w3.org/Graphics/SVG/1.1/DTD/svg11.dtd">
<svg width="100%" height="100%" viewBox="0 0 3685 899" version="1.1" xmlns="http://www.w3.org/2000/svg" xmlns:xlink="http://www.w3.org/1999/xlink" xml:space="preserve" xmlns:serif="http://www.serif.com/" style="fill-rule:evenodd;clip-rule:evenodd;stroke-linecap:round;stroke-linejoin:round;stroke-miterlimit:1.5;">
    <g id="final" transform="matrix(2.09321,0,0,0.798671,-847.283,-261.977)">
        <rect x="404.777" y="328.016" width="1760.29" height="1125.54" style="fill:white;"/>
        <clipPath id="_clip1">
            <rect x="404.777" y="328.016" width="1760.29" height="1125.54"/>
        </clipPath>
        <g clip-path="url(#_clip1)">
            <g transform="matrix(0.477735,0,0,1.09938,404.777,327.496)">
                <rect x="-3.877" y="-3.402" width="3702.65" height="1025.79" style="fill:rgb(50,52,62);"/>
            </g>
            <g transform="matrix(0.589379,0,0,0.589379,496.915,701.647)">
                <g transform="matrix(2.68685,0,0,7.07963,-1386.81,-3433.99)">
                    <path d="M728.094,632.786C733.865,636.959 741.926,642.047 745.406,645.305C747.324,647.102 747.453,651.958 748.971,652.339C750.489,652.721 754.462,649.011 754.513,647.596C754.564,646.18 750.402,645.672 749.275,643.844C747.031,640.204 744.264,627.908 741.046,625.754C737.829,623.599 733.662,629.196 729.969,630.917" style="fill:rgb(247,88,151);"/>
                    <path d="M753.35,647.693C753.221,647.598 752.97,647.422 752.769,647.318C752.021,646.931 751.056,646.557 750.225,646.092C749.412,645.638 748.723,645.087 748.317,644.429C746.825,642.009 745.088,635.816 743.16,631.227C742.271,629.112 741.404,627.342 740.418,626.682C739.638,626.159 738.782,626.394 737.883,626.841C735.466,628.046 732.854,630.807 730.446,631.93C729.885,632.192 729.215,631.95 728.951,631.392C728.688,630.833 728.931,630.166 729.492,629.905C731.885,628.789 734.474,626.038 736.877,624.842C738.574,623.996 740.201,623.84 741.674,624.826C742.594,625.442 743.526,626.75 744.38,628.479C746.607,632.987 748.56,640.546 750.233,643.26C750.547,643.768 751.2,644.098 751.86,644.42C752.757,644.859 753.704,645.234 754.352,645.643C755.238,646.202 755.663,646.905 755.637,647.635C755.623,648.006 755.477,648.488 755.172,649.011C754.631,649.937 753.544,651.113 752.405,652.007C751.666,652.588 750.903,653.048 750.257,653.281C749.658,653.498 749.119,653.53 748.695,653.423C748.225,653.305 747.793,653.007 747.433,652.51C746.96,651.856 746.59,650.728 746.209,649.505C745.82,648.256 745.435,646.869 744.635,646.12C743.447,645.007 741.711,643.678 739.716,642.244C735.914,639.509 731.189,636.406 727.433,633.69C726.932,633.327 726.82,632.628 727.185,632.128C727.55,631.629 728.254,631.519 728.756,631.882C732.509,634.596 737.233,637.698 741.034,640.431C743.121,641.932 744.934,643.327 746.177,644.491C746.632,644.918 747.015,645.476 747.336,646.114C748.014,647.465 748.409,649.212 748.889,650.452C749.009,650.763 749.246,651.151 749.316,651.262C749.477,651.257 749.67,651.116 749.904,650.991C750.433,650.711 751.01,650.282 751.547,649.804C752.188,649.234 752.773,648.596 753.135,648.038C753.22,647.907 753.304,647.794 753.35,647.693Z" style="fill:white;"/>
                </g>
                <g transform="matrix(2.68685,0,0,7.07963,-1386.81,-3433.99)">
                    <path d="M752.241,596.16C754.914,597.118 761.935,589.889 765.649,588.921C768.55,588.164 773.158,591.454 774.527,590.346C775.897,589.239 775.095,583.064 773.867,582.277C772.639,581.49 769.658,585.534 767.161,585.625C763.119,585.774 752.097,581.414 749.61,583.169C747.123,584.925 749.567,595.201 752.241,596.16Z" style="fill:rgb(247,88,151);"/>
                    <path d="M751.86,597.212C752.79,597.545 754.159,597.263 755.709,596.431C758.9,594.718 763.272,590.697 765.935,590.002C766.93,589.743 768.155,590.107 769.346,590.498C770.978,591.033 772.558,591.661 773.624,591.693C774.292,591.713 774.833,591.541 775.236,591.214C775.653,590.877 776.004,590.276 776.186,589.464C776.389,588.561 776.415,587.345 776.296,586.14C776.156,584.719 775.813,583.316 775.389,582.456C775.119,581.91 774.787,581.537 774.476,581.337C774.009,581.038 773.436,580.964 772.771,581.182C771.938,581.455 770.795,582.39 769.591,583.272C768.772,583.872 767.93,584.478 767.12,584.508C764.19,584.616 757.554,582.299 753.256,581.757C751.316,581.513 749.773,581.683 748.959,582.257C748.273,582.742 747.776,583.645 747.572,584.86C747.327,586.328 747.475,588.31 747.901,590.246C748.319,592.139 748.999,593.985 749.782,595.257C750.415,596.285 751.157,596.96 751.86,597.212ZM773.326,583.38C773.215,583.432 773.076,583.501 772.97,583.568C772.086,584.126 771.005,585.087 769.899,585.773C768.998,586.332 768.071,586.711 767.203,586.743C764.198,586.853 757.382,584.531 752.974,583.976C752.25,583.885 751.6,583.844 751.059,583.887C750.726,583.913 750.447,583.949 750.26,584.081C749.972,584.285 749.876,584.717 749.79,585.228C749.583,586.465 749.738,588.134 750.098,589.767C750.457,591.397 751.025,592.993 751.7,594.09C752.004,594.585 752.284,594.986 752.622,595.108C752.782,595.165 752.974,595.124 753.194,595.071C753.627,594.964 754.114,594.746 754.641,594.463C757.971,592.676 762.586,588.564 765.364,587.839C766.058,587.658 766.829,587.65 767.636,587.766C769.337,588.011 771.229,588.844 772.707,589.265C773.026,589.356 773.319,589.426 773.58,589.45C773.668,589.459 773.8,589.451 773.852,589.447C773.992,589.294 774.003,588.988 774.052,588.644C774.147,587.977 774.138,587.165 774.058,586.358C773.963,585.391 773.766,584.432 773.5,583.74C773.455,583.625 773.385,583.488 773.326,583.38Z" style="fill:white;"/>
                </g>
                <g transform="matrix(2.68685,0,0,7.07963,-1386.81,-3433.99)">
                    <path d="M745.185,574.682C748.527,573.807 752.048,561.434 754.615,558.784C756,557.354 760.364,560.232 760.586,558.784C760.809,557.336 757.493,550.517 755.948,550.094C754.403,549.671 753.466,554.844 751.316,556.245C747.752,558.568 735.589,560.957 734.567,564.03C733.546,567.102 741.844,575.556 745.185,574.682Z" style="fill:rgb(247,88,151);"/>
                    <path d="M745.471,575.763C746.524,575.488 747.68,574.369 748.739,572.67C750.344,570.094 751.929,566.16 753.363,563.122C754.108,561.543 754.786,560.218 755.424,559.56C755.534,559.446 755.715,559.486 755.904,559.493C756.272,559.507 756.678,559.593 757.087,559.695C758.364,560.014 759.663,560.407 760.348,560.291C761.112,560.161 761.577,559.737 761.698,558.953C761.752,558.599 761.696,558.012 761.488,557.289C761.128,556.033 760.327,554.211 759.441,552.632C758.759,551.418 758.02,550.347 757.398,549.742C756.986,549.34 756.58,549.107 756.246,549.016C755.63,548.847 755.036,548.986 754.481,549.46C753.897,549.959 753.314,551.045 752.722,552.253C752.15,553.418 751.57,554.743 750.699,555.31C748.11,556.998 740.933,558.703 736.891,560.702C735.06,561.608 733.836,562.667 733.5,563.678C733.229,564.494 733.361,565.604 733.921,566.832C734.612,568.35 735.946,570.124 737.504,571.686C739.055,573.24 740.824,574.581 742.363,575.282C743.546,575.822 744.633,575.983 745.471,575.763ZM755.808,551.345C755.676,551.519 755.49,551.779 755.367,552.003C754.887,552.876 754.397,554.014 753.818,555C753.278,555.922 752.649,556.714 751.932,557.181C749.618,558.689 743.744,560.248 739.528,561.974C738.217,562.512 737.077,563.059 736.31,563.643C735.983,563.892 735.723,564.117 735.635,564.381C735.501,564.782 735.694,565.306 735.969,565.909C736.569,567.228 737.747,568.754 739.1,570.11C740.445,571.458 741.965,572.641 743.3,573.249C743.916,573.53 744.463,573.715 744.899,573.6C745.568,573.425 746.155,572.571 746.828,571.492C748.394,568.979 749.929,565.135 751.328,562.172C752.205,560.313 753.054,558.783 753.805,558.008C754.435,557.358 755.433,557.151 756.58,557.313C757.511,557.444 758.566,557.837 759.363,558.006C759.329,557.895 759.289,557.774 759.248,557.646C758.967,556.767 758.486,555.65 757.934,554.573C757.386,553.503 756.769,552.471 756.203,551.764C756.086,551.618 755.932,551.462 755.808,551.345Z" style="fill:white;"/>
                </g>
                <g transform="matrix(2.68685,0,0,7.07963,-1386.81,-3433.99)">
                    <path d="M696.059,557.989C692.46,553.37 687.235,547.989 685.263,544.132C683.846,541.359 685.716,535.815 684.23,534.847C682.745,533.88 676.755,536.752 676.349,538.329C675.943,539.905 680.678,541.853 681.794,544.307C683.619,548.318 685.464,556.365 687.299,562.395" style="fill:rgb(247,88,151);"/>
                    <path d="M677.477,538.519C677.565,538.636 677.811,538.954 678.037,539.161C679.03,540.066 680.572,541.076 681.646,542.197C682.15,542.723 682.56,543.276 682.819,543.846C683.465,545.267 684.117,547.18 684.767,549.332C685.968,553.31 687.173,558.123 688.375,562.071C688.554,562.661 688.218,563.286 687.624,563.465C687.03,563.644 686.402,563.309 686.223,562.719C685.021,558.77 683.815,553.955 682.613,549.975C681.996,547.933 681.384,546.116 680.77,544.768C680.432,544.024 679.673,543.361 678.89,542.722C677.929,541.939 676.909,541.213 676.241,540.545C675.381,539.687 675.066,538.804 675.26,538.051C675.356,537.678 675.609,537.238 676.037,536.801C676.752,536.071 678.04,535.248 679.413,534.619C680.819,533.975 682.31,533.542 683.348,533.535C683.974,533.53 684.483,533.675 684.846,533.912C685.295,534.204 685.632,534.687 685.805,535.369C686.075,536.426 685.911,538.177 685.84,539.965C685.786,541.296 685.771,542.658 686.265,543.625C686.908,544.882 687.915,546.306 689.095,547.814C691.485,550.871 694.571,554.254 696.947,557.304C697.327,557.792 697.238,558.495 696.747,558.873C696.257,559.251 695.55,559.162 695.17,558.674C692.794,555.625 689.709,552.243 687.32,549.187C686.041,547.551 684.958,546.002 684.261,544.639C683.935,544.002 683.742,543.246 683.649,542.428C683.446,540.654 683.725,538.546 683.719,536.973C683.718,536.623 683.703,536.305 683.652,536.036C683.634,535.944 683.589,535.816 683.568,535.76C683.441,535.715 683.255,535.768 683.039,535.794C682.265,535.887 681.289,536.222 680.353,536.65C679.411,537.082 678.51,537.612 677.904,538.125C677.724,538.278 677.556,538.396 677.477,538.519Z" style="fill:white;"/>
                </g>
                <g transform="matrix(2.68685,0,0,7.07963,-1386.81,-3433.99)">
                    <path d="M668.668,594.864C667.567,594.031 663.801,597.317 661.149,597.584C657.884,597.913 651.088,595.852 649.076,596.839C647.081,597.817 647.974,602.656 649.076,603.504C650.178,604.352 653.426,602.036 655.689,601.925C658.803,601.772 665.597,603.765 667.76,602.588C669.923,601.411 669.77,595.698 668.668,594.864Z" style="fill:rgb(247,88,151);"/>
                    <path d="M669.349,593.975C668.94,593.665 668.375,593.528 667.667,593.666C666.901,593.815 665.833,594.359 664.682,594.974C663.474,595.618 662.152,596.359 661.036,596.472C658.665,596.711 654.402,595.645 651.542,595.476C650.272,595.401 649.228,595.518 648.579,595.836C647.453,596.388 646.834,597.745 646.773,599.333C646.727,600.527 646.968,601.833 647.336,602.793C647.626,603.547 648.021,604.106 648.389,604.389C648.913,604.792 649.706,604.916 650.681,604.682C652.108,604.34 654.169,603.119 655.745,603.042C658.055,602.929 662.407,604.015 665.352,604.077C666.591,604.103 667.623,603.936 668.299,603.569C669.582,602.871 670.369,600.977 670.538,598.984C670.66,597.547 670.495,596.094 670.164,595.187C669.953,594.609 669.65,594.202 669.349,593.975ZM668.013,595.896C667.859,595.938 667.641,596.002 667.476,596.073C666.475,596.499 665.202,597.278 663.944,597.86C663.015,598.29 662.09,598.613 661.262,598.697C658.803,598.945 654.376,597.883 651.409,597.709C650.626,597.662 649.973,597.646 649.573,597.842C649.32,597.966 649.218,598.257 649.135,598.571C649.02,599.013 648.996,599.525 649.029,600.037C649.078,600.81 649.256,601.587 649.502,602.156C649.574,602.322 649.632,602.472 649.71,602.565C649.822,602.553 650.143,602.516 650.37,602.45C651.429,602.143 652.766,601.483 654.008,601.114C654.574,600.946 655.125,600.833 655.634,600.808C657.698,600.707 661.353,601.517 664.258,601.774C665.513,601.885 666.601,601.944 667.22,601.607C667.812,601.285 668.047,600.427 668.203,599.531C668.389,598.47 668.366,597.304 668.186,596.443C668.148,596.259 668.072,596.045 668.013,595.896Z" style="fill:white;"/>
                </g>
                <g transform="matrix(2.68685,0,0,7.07963,-1386.81,-3433.99)">
                    <path d="M671.62,614.6C668.757,614.958 665.037,624.694 661.904,627.239C659.458,629.227 653.99,628.429 652.823,629.87C651.655,631.312 653.168,635.9 654.901,635.888C656.634,635.875 660.084,631.197 663.223,629.796C667.253,627.996 677.685,627.621 679.085,625.089C680.484,622.556 674.483,614.241 671.62,614.6Z" style="fill:rgb(247,88,151);"/>
                    <path d="M671.48,613.49C670.504,613.613 669.364,614.482 668.267,615.912C665.958,618.922 663.441,624.548 661.193,626.373C660.328,627.076 659.008,627.327 657.702,627.521C655.99,627.774 654.278,627.902 653.213,628.311C652.655,628.525 652.231,628.819 651.947,629.169C651.587,629.613 651.359,630.242 651.302,630.981C651.222,632.024 651.478,633.322 651.952,634.414C652.335,635.296 652.865,636.039 653.428,636.472C653.897,636.832 654.403,637.01 654.909,637.006C655.569,637.001 656.457,636.588 657.424,635.823C659.187,634.428 661.502,631.79 663.683,630.816C666.591,629.517 672.866,628.985 676.594,627.812C678.351,627.26 679.594,626.488 680.07,625.627C680.453,624.934 680.524,623.936 680.226,622.776C679.865,621.368 678.973,619.652 677.853,618.092C676.739,616.541 675.404,615.147 674.188,614.335C673.201,613.676 672.247,613.394 671.48,613.49ZM671.76,615.709C672.104,615.666 672.493,615.897 672.934,616.191C673.965,616.88 675.08,618.077 676.023,619.391C676.967,620.707 677.743,622.142 678.048,623.329C678.175,623.825 678.264,624.253 678.1,624.55C677.815,625.065 676.968,625.349 675.916,625.68C672.116,626.875 665.726,627.452 662.762,628.775C662.108,629.068 661.439,629.484 660.775,629.973C659.195,631.139 657.629,632.739 656.324,633.829C655.945,634.146 655.593,634.415 655.273,634.6C655.126,634.685 655.008,634.769 654.893,634.77C654.76,634.771 654.687,634.61 654.573,634.475C654.253,634.092 653.991,633.545 653.806,632.966C653.622,632.391 653.516,631.782 653.538,631.253C653.549,630.981 653.569,630.732 653.698,630.572C653.762,630.493 653.874,630.456 653.998,630.407C654.305,630.285 654.686,630.202 655.11,630.129C656.718,629.853 658.846,629.741 660.563,629.174C661.342,628.917 662.044,628.569 662.616,628.105C664.955,626.205 667.651,620.401 670.054,617.269C670.443,616.763 670.819,616.335 671.188,616.033C671.391,615.868 671.571,615.733 671.76,615.709Z" style="fill:white;"/>
                </g>
                <g transform="matrix(2.68685,0,0,7.07963,-1386.81,-3433.99)">
                    <path d="M682.315,628.472C679.811,630.117 678.539,642.963 676.565,646.821C675.388,649.123 670.402,650.223 670.473,651.621C670.544,653.019 675.622,655.561 676.992,655.21C678.363,654.859 677.458,651.061 678.696,649.513C681.129,646.471 690.988,640.462 691.591,636.955C692.194,633.448 684.82,626.828 682.315,628.472Z" style="fill:rgb(247,88,151);"/>
                    <path d="M681.696,627.539C680.89,628.068 680.086,629.511 679.449,631.511C678.019,635.999 676.988,643.529 675.563,646.314C675.177,647.069 674.25,647.616 673.33,648.134C672.02,648.87 670.676,649.512 670.035,650.137C669.529,650.63 669.324,651.163 669.35,651.677C669.368,652.029 669.505,652.431 669.801,652.838C670.225,653.423 671.065,654.101 672.062,654.692C673.304,655.428 674.784,656.047 675.839,656.264C676.43,656.386 676.928,656.381 677.273,656.293C678.008,656.104 678.538,655.515 678.784,654.548C678.962,653.852 678.998,652.891 679.099,651.953C679.171,651.291 679.239,650.63 679.576,650.209C681.387,647.944 687.352,644.032 690.475,640.743C691.715,639.437 692.521,638.18 692.699,637.143C692.834,636.359 692.693,635.449 692.299,634.5C691.709,633.079 690.539,631.53 689.169,630.228C687.729,628.86 686.071,627.771 684.678,627.333C683.491,626.959 682.448,627.046 681.696,627.539ZM676.549,654.132C676.595,653.965 676.677,653.651 676.706,653.413C676.821,652.466 676.848,651.301 677.098,650.343C677.251,649.754 677.485,649.23 677.816,648.817C679.433,646.795 684.273,643.466 687.595,640.422C689.088,639.054 690.303,637.813 690.483,636.766C690.581,636.195 690.341,635.525 689.968,634.821C689.43,633.805 688.576,632.757 687.616,631.845C686.449,630.736 685.128,629.82 683.999,629.465C683.576,629.331 683.203,629.23 682.935,629.406C682.723,629.545 682.558,629.835 682.372,630.197C682.096,630.731 681.84,631.411 681.592,632.187C680.129,636.781 679.026,644.477 677.567,647.328C677.164,648.117 676.423,648.814 675.53,649.414C674.411,650.167 673.044,650.777 672.119,651.358C671.994,651.437 671.849,651.55 671.736,651.642C671.835,651.754 671.965,651.892 672.084,651.992C672.551,652.381 673.18,652.775 673.839,653.119C674.621,653.526 675.447,653.866 676.113,654.032C676.28,654.074 676.428,654.118 676.549,654.132Z" style="fill:white;"/>
                </g>
                <g transform="matrix(2.68685,0,0,7.07963,-1386.81,-3433.99)">
                    <path d="M704.092,637.694C702.928,641.134 703.106,655.064 702.729,659.558C702.584,661.279 701.183,663.81 701.828,664.661C702.472,665.511 706.129,666.18 706.594,664.661C707.909,660.37 710.131,643.409 709.714,638.914C709.537,637.005 704.707,635.877 704.092,637.694Z" style="fill:rgb(247,88,151);"/>
                    <path d="M703.027,637.337C702.605,638.583 702.332,641.14 702.165,644.151C701.863,649.576 701.855,656.533 701.608,659.465C701.505,660.698 700.738,662.351 700.577,663.484C700.464,664.273 700.608,664.909 700.93,665.334C701.161,665.639 701.603,665.969 702.203,666.211C702.939,666.508 703.942,666.705 704.844,666.683C706.243,666.647 707.351,666.026 707.67,664.987C708.337,662.809 709.242,657.418 709.919,652.001C710.6,646.564 711.046,641.1 710.834,638.811C710.782,638.248 710.521,637.712 710.077,637.246C709.469,636.609 708.471,636.094 707.42,635.84C706.298,635.57 705.132,635.608 704.334,635.961C703.694,636.244 703.239,636.709 703.027,637.337ZM705.531,664.295C706.177,662.156 707.034,656.952 707.688,651.724C708.344,646.485 708.8,641.222 708.595,639.017C708.581,638.868 708.44,638.766 708.3,638.652C707.935,638.357 707.418,638.141 706.89,638.014C706.447,637.907 705.992,637.863 705.601,637.915C705.472,637.932 705.351,637.959 705.247,638.004C705.213,638.019 705.169,638.017 705.158,638.05C704.773,639.187 704.562,641.527 704.41,644.274C704.107,649.722 704.096,656.707 703.849,659.651C703.774,660.543 703.402,661.64 703.096,662.638C702.953,663.102 702.832,663.796 702.796,664.014C702.852,664.046 702.921,664.084 702.977,664.109C703.25,664.228 703.588,664.322 703.942,664.382C704.354,664.451 704.788,664.475 705.162,664.414C705.254,664.398 705.342,664.378 705.422,664.349C705.456,664.336 705.505,664.309 705.531,664.295Z" style="fill:white;"/>
                </g>
                <g transform="matrix(3.25863,0,0,8.48042,-1790.94,-4290.9)">
                    <ellipse cx="709.674" cy="599.745" rx="35.105" ry="34.502" style="fill:rgb(247,88,151);"/>
                    <path d="M709.674,564.31C699.812,564.31 690.871,568.214 684.364,574.534C677.744,580.961 673.642,589.886 673.642,599.745C673.642,609.604 677.744,618.53 684.364,624.957C690.871,631.276 699.812,635.181 709.674,635.181C719.535,635.181 728.476,631.276 734.984,624.957C741.603,618.53 745.705,609.604 745.705,599.745C745.705,589.886 741.603,580.961 734.984,574.534C728.476,568.214 719.535,564.31 709.674,564.31ZM709.674,566.177C719.033,566.177 727.52,569.88 733.697,575.878C739.964,581.963 743.851,590.411 743.851,599.745C743.851,609.08 739.964,617.528 733.697,623.613C727.52,629.611 719.033,633.314 709.674,633.314C700.314,633.314 691.827,629.611 685.651,623.613C679.384,617.528 675.496,609.08 675.496,599.745C675.496,590.411 679.384,581.963 685.651,575.878C691.827,569.88 700.314,566.177 709.674,566.177Z" style="fill:white;"/>
                </g>
            </g>
            <g transform="matrix(1.13066,-0.720552,0.1049,1.13066,-95.2498,284.564)">
                <g transform="matrix(2.68685,0,0,7.07963,-1386.81,-3433.99)">
                    <path d="M728.094,632.786C733.865,636.959 741.926,642.047 745.406,645.305C747.324,647.102 747.453,651.958 748.971,652.339C750.489,652.721 754.462,649.011 754.513,647.596C754.564,646.18 750.402,645.672 749.275,643.844C747.031,640.204 744.264,627.908 741.046,625.754C737.829,623.599 733.662,629.196 729.969,630.917" style="fill:rgb(247,88,151);"/>
                    <path d="M727.76,633.244C731.515,635.96 736.24,639.062 740.041,641.797C742.059,643.248 743.814,644.592 745.016,645.718C745.651,646.313 746.054,647.285 746.398,648.286C746.778,649.392 747.076,650.541 747.439,651.376C747.801,652.21 748.277,652.749 748.831,652.888C749.222,652.987 749.741,652.913 750.315,652.664C751.044,652.348 751.899,651.751 752.676,651.06C753.438,650.382 754.127,649.615 754.557,648.952C754.891,648.439 755.07,647.967 755.082,647.616C755.102,647.054 754.736,646.539 754.055,646.109C753.421,645.709 752.493,645.344 751.616,644.916C750.854,644.543 750.122,644.134 749.761,643.548C748.082,640.826 746.117,633.244 743.882,628.722C743.081,627.102 742.227,625.862 741.364,625.284C740.062,624.412 738.625,624.588 737.125,625.335C734.719,626.534 732.124,629.287 729.728,630.404C729.443,630.537 729.32,630.874 729.454,631.157C729.587,631.441 729.926,631.563 730.211,631.43C732.615,630.309 735.221,627.551 737.635,626.348C738.73,625.802 739.778,625.587 740.728,626.224C741.773,626.923 742.73,628.774 743.672,631.014C745.588,635.575 747.306,641.735 748.79,644.14C749.045,644.554 749.427,644.916 749.887,645.234C750.895,645.931 752.3,646.415 753.241,646.945C753.455,647.065 753.642,647.186 753.781,647.317C753.869,647.4 753.948,647.474 753.944,647.575C753.937,647.78 753.795,648.039 753.601,648.337C753.216,648.93 752.598,649.61 751.917,650.215C751.238,650.819 750.497,651.35 749.86,651.626C749.566,651.753 749.31,651.84 749.111,651.79C748.996,651.761 748.91,651.664 748.822,651.545C748.652,651.318 748.509,651.008 748.371,650.65C747.897,649.425 747.51,647.696 746.839,646.361C746.55,645.785 746.207,645.278 745.796,644.893C744.567,643.742 742.773,642.363 740.708,640.879C736.908,638.145 732.184,635.043 728.429,632.328C728.175,632.144 727.819,632.2 727.634,632.453C727.449,632.706 727.505,633.06 727.76,633.244Z" style="fill:white;fill-opacity:0.93;"/>
                </g>
                <g transform="matrix(2.68685,0,0,7.07963,-1386.81,-3433.99)">
                    <path d="M752.241,596.16C754.914,597.118 761.935,589.889 765.649,588.921C768.55,588.164 773.158,591.454 774.527,590.346C775.897,589.239 775.095,583.064 773.867,582.277C772.639,581.49 769.658,585.534 767.161,585.625C763.119,585.774 752.097,581.414 749.61,583.169C747.123,584.925 749.567,595.201 752.241,596.16Z" style="fill:rgb(247,88,151);"/>
                    <path d="M752.048,596.693C752.872,596.988 754.073,596.682 755.446,595.945C758.671,594.214 763.103,590.17 765.794,589.468C766.879,589.185 768.22,589.548 769.52,589.974C771.093,590.489 772.613,591.11 773.641,591.141C774.156,591.157 774.575,591.037 774.886,590.786C775.227,590.51 775.495,590.008 775.645,589.344C775.837,588.488 775.856,587.336 775.744,586.194C775.611,584.846 775.293,583.514 774.891,582.699C774.676,582.265 774.423,581.96 774.175,581.801C773.838,581.585 773.424,581.549 772.945,581.706C772.149,581.966 771.069,582.875 769.92,583.717C769.005,584.387 768.045,585.026 767.14,585.059C764.192,585.168 757.511,582.849 753.187,582.305C751.425,582.083 750.019,582.186 749.28,582.707C748.693,583.122 748.294,583.91 748.12,584.951C747.884,586.361 748.033,588.266 748.443,590.127C748.846,591.956 749.499,593.74 750.255,594.969C750.807,595.865 751.435,596.473 752.048,596.693ZM752.434,595.627C752.006,595.473 751.612,595.004 751.227,594.378C750.525,593.238 749.929,591.58 749.556,589.885C749.18,588.178 749.026,586.431 749.243,585.137C749.357,584.453 749.554,583.904 749.939,583.631C750.524,583.218 751.649,583.253 753.044,583.429C757.424,583.98 764.196,586.301 767.182,586.191C767.735,586.171 768.31,585.991 768.885,585.708C770.158,585.08 771.447,583.923 772.493,583.22C772.797,583.015 773.074,582.851 773.321,582.775C773.413,582.747 773.493,582.711 773.559,582.753C773.739,582.869 773.873,583.167 774.018,583.543C774.299,584.272 774.51,585.284 774.61,586.305C774.71,587.317 774.703,588.338 774.533,589.097C774.452,589.459 774.354,589.757 774.168,589.907C774.053,590 773.891,590.013 773.704,590.01C773.374,590.005 772.985,589.919 772.554,589.796C771.097,589.38 769.233,588.554 767.556,588.312C766.828,588.207 766.131,588.209 765.505,588.373C762.756,589.09 758.201,593.18 754.905,594.948C753.893,595.491 753.041,595.845 752.434,595.627Z" style="fill:white;fill-opacity:0.93;"/>
                </g>
                <g transform="matrix(2.68685,0,0,7.07963,-1386.81,-3433.99)">
                    <path d="M745.185,574.682C748.527,573.807 752.048,561.434 754.615,558.784C756,557.354 760.364,560.232 760.586,558.784C760.809,557.336 757.493,550.517 755.948,550.094C754.403,549.671 753.466,554.844 751.316,556.245C747.752,558.568 735.589,560.957 734.567,564.03C733.546,567.102 741.844,575.556 745.185,574.682Z" style="fill:rgb(247,88,151);"/>
                    <path d="M745.33,575.23C746.288,574.979 747.304,573.924 748.267,572.379C749.863,569.819 751.436,565.907 752.861,562.887C753.639,561.239 754.359,559.864 755.025,559.177C755.188,559.009 755.424,558.957 755.689,558.943C755.996,558.927 756.337,558.97 756.69,559.04C757.48,559.195 758.32,559.477 759.006,559.636C759.506,559.753 759.941,559.8 760.255,559.747C760.758,559.661 761.07,559.387 761.149,558.869C761.196,558.566 761.133,558.062 760.955,557.44C760.603,556.216 759.821,554.441 758.957,552.901C758.305,551.741 757.605,550.715 757.01,550.136C756.682,549.816 756.365,549.62 756.099,549.548C755.45,549.37 754.795,549.75 754.23,550.609C753.662,551.471 753.106,552.837 752.432,554.019C752.016,554.748 751.562,555.407 751.003,555.772C748.403,557.467 741.198,559.188 737.138,561.196C735.478,562.018 734.332,562.935 734.027,563.852C733.79,564.565 733.937,565.531 734.426,566.604C735.095,568.073 736.391,569.786 737.898,571.297C739.398,572.8 741.105,574.102 742.594,574.781C743.637,575.256 744.591,575.423 745.33,575.23ZM760.03,558.63C760.042,558.376 759.935,557.972 759.777,557.478C759.488,556.577 758.995,555.429 758.428,554.323C757.861,553.216 757.222,552.151 756.637,551.42C756.313,551.016 756.041,550.707 755.797,550.64C755.684,550.609 755.606,550.71 755.506,550.812C755.343,550.979 755.187,551.209 755.028,551.477C754.382,552.57 753.732,554.23 752.885,555.432C752.508,555.968 752.09,556.418 751.628,556.719C749.004,558.429 741.741,560.184 737.645,562.211C736.335,562.859 735.349,563.484 735.108,564.207C734.941,564.71 735.119,565.38 735.463,566.137C736.086,567.504 737.303,569.092 738.706,570.499C740.102,571.898 741.683,573.119 743.069,573.751C743.824,574.096 744.505,574.274 745.041,574.134C745.804,573.934 746.532,573.014 747.299,571.782C748.875,569.254 750.423,565.388 751.83,562.406C752.675,560.616 753.482,559.137 754.205,558.391C754.59,557.993 755.137,557.813 755.781,557.807C756.892,557.796 758.344,558.338 759.392,558.562C759.58,558.602 759.752,558.631 759.902,558.637C759.941,558.638 759.991,558.634 760.03,558.63Z" style="fill:white;fill-opacity:0.93;"/>
                </g>
                <g transform="matrix(2.68685,0,0,7.07963,-1386.81,-3433.99)">
                    <path d="M696.059,557.989C692.46,553.37 687.235,547.989 685.263,544.132C683.846,541.359 685.716,535.815 684.23,534.847C682.745,533.88 676.755,536.752 676.349,538.329C675.943,539.905 680.678,541.853 681.794,544.307C683.619,548.318 685.464,556.365 687.299,562.395" style="fill:rgb(247,88,151);"/>
                    <path d="M696.509,557.642C694.133,554.592 691.047,551.21 688.657,548.153C687.453,546.613 686.427,545.159 685.771,543.875C685.239,542.835 685.228,541.374 685.285,539.943C685.354,538.216 685.528,536.525 685.268,535.504C685.134,534.98 684.888,534.599 684.542,534.373C684.164,534.127 683.565,534.033 682.834,534.121C681.917,534.233 680.754,534.612 679.645,535.12C678.55,535.622 677.509,536.247 676.806,536.843C676.249,537.315 675.898,537.794 675.797,538.188C675.642,538.789 675.948,539.471 676.634,540.156C677.291,540.812 678.297,541.525 679.241,542.295C680.095,542.992 680.907,543.73 681.276,544.54C681.897,545.906 682.52,547.747 683.145,549.817C684.346,553.796 685.552,558.61 686.754,562.559C686.845,562.858 687.163,563.027 687.464,562.937C687.764,562.846 687.935,562.53 687.844,562.231C686.642,558.283 685.437,553.469 684.235,549.491C683.593,547.366 682.952,545.476 682.313,544.073C682.078,543.556 681.702,543.056 681.244,542.577C680.179,541.465 678.647,540.466 677.662,539.567C677.372,539.302 677.132,539.052 676.991,538.806C676.923,538.688 676.872,538.579 676.9,538.469C676.96,538.235 677.213,537.986 677.544,537.705C678.182,537.165 679.129,536.604 680.121,536.149C681.113,535.695 682.151,535.345 682.972,535.246C683.374,535.197 683.71,535.186 683.919,535.321C684.046,535.404 684.105,535.563 684.156,535.754C684.246,536.084 684.272,536.5 684.274,536.971C684.28,538.526 683.999,540.611 684.2,542.365C684.286,543.114 684.458,543.806 684.756,544.389C685.439,545.726 686.503,547.244 687.758,548.849C690.147,551.905 693.233,555.287 695.609,558.336C695.801,558.583 696.159,558.629 696.407,558.437C696.656,558.246 696.701,557.89 696.509,557.642Z" style="fill:white;fill-opacity:0.93;"/>
                </g>
                <g transform="matrix(2.68685,0,0,7.07963,-1386.81,-3433.99)">
                    <path d="M668.668,594.864C667.567,594.031 663.801,597.317 661.149,597.584C657.884,597.913 651.088,595.852 649.076,596.839C647.081,597.817 647.974,602.656 649.076,603.504C650.178,604.352 653.426,602.036 655.689,601.925C658.803,601.772 665.597,603.765 667.76,602.588C669.923,601.411 669.77,595.698 668.668,594.864Z" style="fill:rgb(247,88,151);"/>
                    <path d="M669.013,594.414C668.575,594.082 667.819,594.106 666.89,594.49C665.278,595.157 662.919,596.837 661.092,597.021C658.699,597.262 654.396,596.197 651.509,596.027C650.359,595.959 649.412,596.043 648.824,596.331C647.859,596.804 647.38,597.993 647.328,599.354C647.285,600.473 647.509,601.697 647.855,602.596C648.099,603.233 648.418,603.714 648.728,603.952C649.144,604.272 649.777,604.331 650.551,604.146C652.005,603.797 654.111,602.569 655.717,602.491C658.037,602.377 662.407,603.463 665.363,603.525C666.485,603.548 667.422,603.417 668.033,603.085C669.185,602.458 669.833,600.728 669.985,598.938C670.1,597.589 669.953,596.227 669.643,595.376C669.476,594.921 669.25,594.593 669.013,594.414ZM668.324,595.315C668.488,595.44 668.583,595.739 668.678,596.11C668.866,596.845 668.935,597.849 668.85,598.843C668.782,599.648 668.614,600.449 668.315,601.089C668.109,601.531 667.845,601.896 667.486,602.091C666.8,602.464 665.599,602.447 664.209,602.324C661.329,602.069 657.708,601.259 655.661,601.359C653.993,601.441 651.794,602.682 650.284,603.044C649.921,603.131 649.619,603.206 649.425,603.056C649.264,602.932 649.126,602.683 648.993,602.374C648.725,601.756 648.528,600.912 648.475,600.072C648.431,599.38 648.482,598.69 648.691,598.14C648.825,597.789 649.021,597.498 649.328,597.347C649.789,597.121 650.539,597.104 651.442,597.158C654.383,597.331 658.769,598.393 661.207,598.148C661.747,598.093 662.331,597.928 662.929,597.695C664.346,597.143 665.859,596.201 667.047,595.658C667.411,595.492 667.738,595.365 668.017,595.315C668.143,595.292 668.25,595.259 668.324,595.315Z" style="fill:white;fill-opacity:0.93;"/>
                </g>
                <g transform="matrix(2.68685,0,0,7.07963,-1386.81,-3433.99)">
                    <path d="M671.62,614.6C668.757,614.958 665.037,624.694 661.904,627.239C659.458,629.227 653.99,628.429 652.823,629.87C651.655,631.312 653.168,635.9 654.901,635.888C656.634,635.875 660.084,631.197 663.223,629.796C667.253,627.996 677.685,627.621 679.085,625.089C680.484,622.556 674.483,614.241 671.62,614.6Z" style="fill:rgb(247,88,151);"/>
                    <path d="M671.549,614.038C670.676,614.147 669.689,614.968 668.708,616.247C666.376,619.287 663.814,624.957 661.544,626.801C660.61,627.559 659.194,627.858 657.784,628.066C656.117,628.313 654.449,628.428 653.413,628.826C652.959,629 652.61,629.23 652.379,629.515C651.726,630.322 651.714,631.981 652.192,633.477C652.502,634.445 652.998,635.334 653.563,635.862C653.98,636.251 654.442,636.457 654.905,636.454C655.48,636.45 656.237,636.057 657.078,635.391C658.872,633.973 661.237,631.303 663.456,630.312C666.377,629.008 672.681,628.464 676.427,627.286C678.009,626.789 679.155,626.137 679.584,625.361C679.913,624.767 679.944,623.908 679.689,622.913C679.341,621.559 678.478,619.912 677.401,618.412C676.33,616.92 675.049,615.574 673.878,614.793C673.026,614.224 672.211,613.955 671.549,614.038ZM671.691,615.162C672.139,615.106 672.668,615.349 673.244,615.733C674.32,616.452 675.489,617.698 676.474,619.071C677.462,620.447 678.267,621.951 678.585,623.193C678.754,623.852 678.804,624.422 678.586,624.816C678.254,625.416 677.308,625.821 676.083,626.206C672.301,627.395 665.94,627.961 662.989,629.279C660.694,630.304 658.225,633.037 656.369,634.505C655.784,634.968 655.297,635.318 654.897,635.321C654.622,635.323 654.381,635.108 654.147,634.828C653.787,634.397 653.486,633.784 653.278,633.134C653.073,632.495 652.96,631.818 652.984,631.231C653,630.825 653.073,630.464 653.266,630.226C653.563,629.859 654.22,629.723 655.016,629.586C656.599,629.313 658.697,629.209 660.388,628.65C661.1,628.416 661.743,628.102 662.265,627.678C664.581,625.796 667.234,620.036 669.613,616.934C670.358,615.963 671.029,615.245 671.691,615.162Z" style="fill:white;fill-opacity:0.93;"/>
                </g>
                <g transform="matrix(2.68685,0,0,7.07963,-1386.81,-3433.99)">
                    <path d="M682.315,628.472C679.811,630.117 678.539,642.963 676.565,646.821C675.388,649.123 670.402,650.223 670.473,651.621C670.544,653.019 675.622,655.561 676.992,655.21C678.363,654.859 677.458,651.061 678.696,649.513C681.129,646.471 690.988,640.462 691.591,636.955C692.194,633.448 684.82,626.828 682.315,628.472Z" style="fill:rgb(247,88,151);"/>
                    <path d="M682.002,628C681.26,628.486 680.564,629.838 679.978,631.678C678.54,636.192 677.491,643.763 676.058,646.564C675.629,647.402 674.624,648.04 673.603,648.614C672.342,649.323 671.041,649.929 670.423,650.531C670.054,650.892 669.885,651.274 669.904,651.649C669.922,651.99 670.115,652.397 670.489,652.805C670.913,653.267 671.583,653.765 672.346,654.218C673.532,654.921 674.944,655.516 675.951,655.724C676.439,655.824 676.85,655.831 677.135,655.758C677.69,655.616 678.06,655.144 678.247,654.412C678.419,653.737 678.45,652.804 678.548,651.894C678.631,651.121 678.748,650.358 679.141,649.866C680.959,647.593 686.939,643.664 690.072,640.364C691.218,639.157 691.988,638.009 692.152,637.05C692.272,636.355 692.135,635.551 691.786,634.711C691.221,633.351 690.097,631.872 688.786,630.627C687.414,629.323 685.838,628.277 684.511,627.859C683.513,627.544 682.634,627.585 682.002,628ZM682.629,628.945C683.016,628.691 683.556,628.746 684.167,628.939C685.36,629.315 686.765,630.273 687.999,631.446C689.004,632.401 689.895,633.5 690.459,634.564C690.898,635.392 691.145,636.188 691.03,636.859C690.836,637.986 689.576,639.356 687.971,640.828C684.67,643.852 679.856,647.152 678.25,649.161C677.964,649.518 677.767,649.972 677.635,650.481C677.349,651.577 677.375,652.954 677.188,653.927C677.147,654.139 677.097,654.329 677.021,654.479C676.977,654.565 676.934,654.64 676.85,654.661C676.649,654.713 676.343,654.659 675.978,654.568C675.276,654.392 674.405,654.037 673.582,653.607C672.752,653.175 671.97,652.667 671.469,652.183C671.239,651.961 671.051,651.775 671.042,651.592C671.037,651.505 671.12,651.441 671.204,651.357C671.398,651.162 671.682,650.973 672.015,650.775C673.14,650.105 674.77,649.384 675.902,648.453C676.406,648.038 676.816,647.581 677.073,647.078C678.523,644.243 679.608,636.588 681.064,632.02C681.545,630.508 682.02,629.345 682.629,628.945Z" style="fill:white;fill-opacity:0.93;"/>
                </g>
                <g transform="matrix(2.68685,0,0,7.07963,-1386.81,-3433.99)">
                    <path d="M704.092,637.694C702.928,641.134 703.106,655.064 702.729,659.558C702.584,661.279 701.183,663.81 701.828,664.661C702.472,665.511 706.129,666.18 706.594,664.661C707.909,660.37 710.131,643.409 709.714,638.914C709.537,637.005 704.707,635.877 704.092,637.694Z" style="fill:rgb(247,88,151);"/>
                    <path d="M703.553,637.513C703.14,638.732 702.882,641.236 702.719,644.181C702.417,649.612 702.408,656.576 702.161,659.511C702.057,660.753 701.289,662.42 701.126,663.561C701.039,664.174 701.124,664.672 701.373,665.002C701.56,665.248 701.926,665.504 702.411,665.699C703.086,665.971 704.004,666.152 704.83,666.131C705.955,666.103 706.883,665.662 707.139,664.826C707.801,662.664 708.696,657.311 709.369,651.933C710.043,646.544 710.492,641.13 710.281,638.862C710.24,638.416 710.026,637.995 709.674,637.626C709.13,637.055 708.231,636.604 707.289,636.377C706.297,636.137 705.265,636.153 704.56,636.465C704.069,636.682 703.715,637.032 703.553,637.513ZM704.632,637.874C704.718,637.622 704.965,637.496 705.259,637.419C705.761,637.289 706.401,637.328 707.021,637.478C707.633,637.625 708.227,637.882 708.65,638.224C708.917,638.44 709.121,638.683 709.147,638.966C709.354,641.192 708.9,646.505 708.239,651.793C707.576,657.091 706.702,662.366 706.05,664.496C705.995,664.675 705.837,664.778 705.649,664.853C705.286,664.997 704.809,665.023 704.328,664.985C703.743,664.939 703.149,664.793 702.714,664.596C702.522,664.509 702.362,664.424 702.282,664.32C702.232,664.254 702.23,664.159 702.229,664.053C702.225,663.823 702.274,663.552 702.346,663.256C702.618,662.131 703.204,660.705 703.296,659.605C703.543,656.664 703.553,649.686 703.856,644.244C704.012,641.431 704.238,639.038 704.632,637.874Z" style="fill:white;fill-opacity:0.93;"/>
                </g>
                <g transform="matrix(3.25863,0,0,8.48042,-1790.94,-4290.9)">
                    <ellipse cx="709.674" cy="599.745" rx="35.105" ry="34.502" style="fill:rgb(247,88,151);"/>
                    <path d="M709.674,564.77C699.936,564.77 691.107,568.625 684.681,574.865C678.149,581.208 674.099,590.016 674.099,599.745C674.099,609.475 678.149,618.282 684.681,624.626C691.107,630.865 699.936,634.72 709.674,634.72C719.411,634.72 728.24,630.865 734.666,624.626C741.199,618.282 745.248,609.475 745.248,599.745C745.248,590.016 741.199,581.208 734.666,574.865C728.24,568.625 719.411,564.77 709.674,564.77ZM709.674,565.716C719.157,565.716 727.756,569.469 734.014,575.546C740.368,581.716 744.309,590.282 744.309,599.745C744.309,609.209 740.368,617.775 734.014,623.945C727.756,630.022 719.157,633.775 709.674,633.775C700.19,633.775 691.591,630.022 685.333,623.945C678.979,617.775 675.038,609.209 675.038,599.745C675.038,590.282 678.979,581.716 685.333,575.546C691.591,569.469 700.19,565.716 709.674,565.716Z" style="fill:white;fill-opacity:0.93;"/>
                </g>
            </g>
            <g transform="matrix(0.272129,-0.256782,0.037383,0.272129,620.305,685.14)">
                <g transform="matrix(2.68685,0,0,7.07963,-1386.81,-3433.99)">
                    <path d="M728.094,632.786C733.865,636.959 741.926,642.047 745.406,645.305C747.324,647.102 747.453,651.958 748.971,652.339C750.489,652.721 754.462,649.011 754.513,647.596C754.564,646.18 750.402,645.672 749.275,643.844C747.031,640.204 744.264,627.908 741.046,625.754C737.829,623.599 733.662,629.196 729.969,630.917" style="fill:rgb(247,88,151);fill-opacity:0.8;"/>
                    <path d="M727.711,630.54C727.831,629.828 728.29,629.183 728.997,628.854C730.5,628.153 732.068,626.729 733.628,625.558C735.12,624.438 736.622,623.524 738.019,623.173C739.53,622.794 740.972,622.958 742.325,623.864C743.366,624.561 744.46,626.011 745.427,627.967C747.639,632.444 749.566,639.958 751.228,642.653C751.568,643.205 752.441,643.418 753.156,643.742C754.361,644.288 755.428,644.876 755.973,645.481C756.57,646.145 756.831,646.886 756.803,647.677C756.784,648.192 756.605,648.868 756.181,649.594C755.582,650.619 754.389,651.928 753.128,652.918C751.409,654.268 749.472,654.816 748.409,654.549C747.698,654.37 747.03,653.939 746.486,653.188C745.959,652.459 745.519,651.212 745.095,649.848C744.767,648.795 744.509,647.596 743.835,646.964C742.676,645.878 740.979,644.584 739.032,643.184C735.23,640.449 730.503,637.345 726.747,634.629C725.725,633.889 725.498,632.463 726.242,631.446C726.608,630.945 727.141,630.636 727.711,630.54ZM748.794,646.55C748.958,646.95 749.107,647.364 749.243,647.781C749.405,648.277 749.622,648.899 749.81,649.426L751.433,647.97C750.99,647.767 750.524,647.559 750.079,647.332C749.62,647.097 749.186,646.836 748.794,646.55ZM746.362,643.093C745.076,640.085 743.635,635.368 742.083,631.675C741.305,629.822 740.63,628.222 739.767,627.644C739.49,627.459 739.188,627.56 738.875,627.674C738.432,627.836 737.982,628.094 737.522,628.393C735.618,629.633 733.623,631.466 731.731,632.565C734.999,634.851 738.657,637.29 741.717,639.491C743.53,640.795 745.14,642.022 746.362,643.093Z" style="fill:rgb(255,254,255);"/>
                </g>
                <g transform="matrix(2.68685,0,0,7.07963,-1386.81,-3433.99)">
                    <path d="M752.241,596.16C754.914,597.118 761.935,589.889 765.649,588.921C768.55,588.164 773.158,591.454 774.527,590.346C775.897,589.239 775.095,583.064 773.867,582.277C772.639,581.49 769.658,585.534 767.161,585.625C763.119,585.774 752.097,581.414 749.61,583.169C747.123,584.925 749.567,595.201 752.241,596.16Z" style="fill:rgb(247,88,151);fill-opacity:0.8;"/>
                    <path d="M751.464,598.303C752.619,598.717 754.34,598.484 756.263,597.452C758.165,596.431 760.48,594.658 762.636,593.165C763.987,592.229 765.236,591.384 766.231,591.125C767.25,590.859 768.529,591.437 769.724,591.852C771.207,592.368 772.599,592.823 773.588,592.853C774.58,592.883 775.373,592.599 775.972,592.115C776.438,591.738 776.862,591.163 777.137,590.38C777.508,589.32 777.619,587.667 777.457,586.027C777.301,584.45 776.907,582.898 776.436,581.945C776.051,581.163 775.553,580.647 775.108,580.362C774.366,579.886 773.461,579.734 772.406,580.079C771.607,580.341 770.542,581.095 769.421,581.947C768.644,582.538 767.868,583.319 767.077,583.348C764.186,583.455 757.644,581.14 753.403,580.606C751.085,580.314 749.256,580.625 748.284,581.311C747.391,581.941 746.686,583.088 746.422,584.67C746.156,586.256 746.3,588.401 746.762,590.494C747.302,592.945 748.279,595.309 749.34,596.663C750.007,597.513 750.756,598.05 751.464,598.303ZM763.317,587.403C760.577,586.839 757.256,585.93 754.45,585.392C753.403,585.191 752.441,585.047 751.641,585.032C751.454,585.028 751.214,585.049 751.041,585.069C750.986,585.283 750.904,585.637 750.885,585.912C750.81,586.97 750.959,588.256 751.237,589.518C751.518,590.791 751.933,592.041 752.432,593.014C752.584,593.31 752.841,593.668 753.006,593.885C753.36,593.75 754.059,593.469 754.552,593.18C756.744,591.895 759.387,589.758 761.654,588.339C762.229,587.98 762.787,587.663 763.317,587.403ZM772.459,585.414C771.965,585.772 771.42,586.159 770.978,586.458C770.621,586.699 770.257,586.918 769.892,587.108C770.759,587.373 771.62,587.693 772.405,587.955C772.505,587.988 772.614,588.021 772.726,588.053L772.459,585.414Z" style="fill:rgb(255,254,255);"/>
                </g>
                <g transform="matrix(2.68685,0,0,7.07963,-1386.81,-3433.99)">
                    <path d="M745.185,574.682C748.527,573.807 752.048,561.434 754.615,558.784C756,557.354 760.364,560.232 760.586,558.784C760.809,557.336 757.493,550.517 755.948,550.094C754.403,549.671 753.466,554.844 751.316,556.245C747.752,558.568 735.589,560.957 734.567,564.03C733.546,567.102 741.844,575.556 745.185,574.682Z" style="fill:rgb(247,88,151);fill-opacity:0.8;"/>
                    <path d="M755.992,560.69C755.499,561.349 754.99,562.405 754.419,563.615C752.967,566.691 751.356,570.673 749.73,573.281C748.47,575.303 747.022,576.557 745.768,576.885C744.72,577.16 743.355,577.011 741.877,576.337C740.232,575.587 738.333,574.164 736.676,572.503C734.662,570.484 733.03,568.113 732.464,566.288C732.111,565.148 732.122,564.128 732.392,563.314C732.795,562.103 734.179,560.748 736.371,559.663C740.376,557.682 747.495,556.012 750.06,554.34C750.786,553.866 751.196,552.716 751.673,551.744C752.35,550.365 753.054,549.15 753.721,548.58C754.611,547.82 755.569,547.626 756.556,547.897C757.033,548.027 757.625,548.339 758.215,548.913C758.895,549.575 759.714,550.738 760.46,552.067C761.393,553.729 762.23,555.648 762.61,556.97C762.879,557.906 762.921,558.67 762.851,559.128C762.644,560.474 761.857,561.211 760.545,561.434C759.84,561.554 758.601,561.311 757.303,560.953C756.927,560.849 756.319,560.743 755.992,560.69ZM752.026,558.474C749.393,559.91 743.958,561.415 739.973,563.048C738.946,563.468 738.031,563.893 737.337,564.343C737.16,564.457 736.947,564.637 736.816,564.754C736.9,565.018 737.094,565.591 737.311,565.976C737.92,567.057 738.868,568.23 739.928,569.293C740.983,570.35 742.151,571.3 743.24,571.915C743.757,572.206 744.178,572.536 744.538,572.49C744.621,572.417 744.947,572.124 745.133,571.891C745.654,571.241 746.165,570.372 746.679,569.396C748.561,565.821 750.44,561.035 752.026,558.474ZM755.965,553.432C755.791,553.764 755.612,554.109 755.461,554.408C755.118,555.086 754.738,555.748 754.323,556.34C754.874,556.144 755.499,556.064 756.184,556.106C756.534,556.128 756.996,556.206 757.474,556.305C757.039,555.323 756.501,554.277 755.965,553.432Z" style="fill:rgb(255,254,255);"/>
                </g>
                <g transform="matrix(2.68685,0,0,7.07963,-1386.81,-3433.99)">
                    <path d="M696.059,557.989C692.46,553.37 687.235,547.989 685.263,544.132C683.846,541.359 685.716,535.815 684.23,534.847C682.745,533.88 676.755,536.752 676.349,538.329C675.943,539.905 680.678,541.853 681.794,544.307C683.619,548.318 685.464,556.365 687.299,562.395" style="fill:rgb(247,88,151);fill-opacity:0.8;"/>
                    <path d="M685.997,549.379C687.162,553.28 688.328,557.913 689.491,561.735C689.858,562.938 689.172,564.211 687.962,564.576C686.752,564.94 685.472,564.259 685.106,563.055C683.904,559.105 682.698,554.29 681.496,550.309C680.896,548.324 680.304,546.557 679.707,545.246C679.306,544.365 678.207,543.652 677.281,542.933C676.076,541.997 675.021,541.077 674.546,540.283C674.028,539.418 673.923,538.566 674.129,537.763C674.265,537.238 674.599,536.606 675.202,535.991C675.992,535.184 677.407,534.261 678.925,533.565C680.5,532.844 682.177,532.382 683.34,532.374C684.238,532.368 684.963,532.601 685.485,532.941C686.151,533.374 686.679,534.073 686.936,535.084C687.185,536.061 687.136,537.567 687.046,539.189C686.97,540.565 686.785,542.081 687.305,543.099C687.92,544.302 688.888,545.659 690.016,547.102C692.406,550.159 695.493,553.543 697.869,556.594C698.644,557.588 698.461,559.02 697.462,559.791C696.462,560.561 695.022,560.379 694.248,559.385C691.873,556.336 688.788,552.955 686.399,549.9L685.997,549.379ZM682.484,537.341L679.421,538.753C679.833,539.103 680.312,539.502 680.708,539.816C681.315,540.298 681.903,540.811 682.419,541.345C682.402,540.845 682.407,540.337 682.427,539.83C682.457,539.077 682.475,538.094 682.484,537.341Z" style="fill:rgb(255,254,255);"/>
                </g>
                <g transform="matrix(2.68685,0,0,7.07963,-1386.81,-3433.99)">
                    <path d="M668.668,594.864C667.567,594.031 663.801,597.317 661.149,597.584C657.884,597.913 651.088,595.852 649.076,596.839C647.081,597.817 647.974,602.656 649.076,603.504C650.178,604.352 653.426,602.036 655.689,601.925C658.803,601.772 665.597,603.765 667.76,602.588C669.923,601.411 669.77,595.698 668.668,594.864Z" style="fill:rgb(247,88,151);fill-opacity:0.8;"/>
                    <path d="M670.056,593.051C669.418,592.568 668.546,592.312 667.442,592.527C666.596,592.693 665.404,593.271 664.13,593.951C663.061,594.522 661.907,595.218 660.918,595.317C658.594,595.551 654.416,594.483 651.611,594.318C650.088,594.228 648.841,594.414 648.063,594.795C646.598,595.514 645.687,597.222 645.607,599.288C645.545,600.901 645.954,602.686 646.505,603.802C646.85,604.5 647.28,605.003 647.675,605.307C648.428,605.886 649.554,606.146 650.954,605.81C652.324,605.482 654.29,604.275 655.802,604.201C658.093,604.089 662.407,605.176 665.327,605.237C666.816,605.268 668.048,605.028 668.859,604.587C670.416,603.74 671.495,601.501 671.701,599.082C671.838,597.456 671.635,595.817 671.261,594.791C670.954,593.953 670.491,593.381 670.056,593.051ZM667.076,597.598C666.598,597.829 666.063,598.093 665.63,598.32C664.197,599.068 662.671,599.721 661.38,599.851C660.57,599.933 659.578,599.902 658.492,599.795C656.354,599.584 653.786,599.071 651.765,598.898C651.166,598.847 650.646,598.751 650.287,598.82C650.251,598.994 650.186,599.34 650.183,599.579C650.177,600.04 650.32,600.682 650.45,601.167C650.882,601.019 651.427,600.826 651.847,600.658C653.116,600.153 654.45,599.704 655.577,599.649C657.679,599.546 661.403,600.357 664.361,600.618C665.298,600.701 666.118,600.839 666.605,600.615C666.641,600.56 666.738,600.407 666.782,600.305C666.879,600.082 666.951,599.833 667.007,599.572C667.126,599.023 667.117,598.249 667.076,597.598Z" style="fill:rgb(255,254,255);"/>
                </g>
                <g transform="matrix(2.68685,0,0,7.07963,-1386.81,-3433.99)">
                    <path d="M671.62,614.6C668.757,614.958 665.037,624.694 661.904,627.239C659.458,629.227 653.99,628.429 652.823,629.87C651.655,631.312 653.168,635.9 654.901,635.888C656.634,635.875 660.084,631.197 663.223,629.796C667.253,627.996 677.685,627.621 679.085,625.089C680.484,622.556 674.483,614.241 671.62,614.6Z" style="fill:rgb(247,88,151);fill-opacity:0.8;"/>
                    <path d="M671.334,612.339C670.141,612.488 668.68,613.461 667.339,615.208C665.08,618.154 662.655,623.687 660.455,625.474C659.735,626.06 658.618,626.212 657.53,626.373C655.722,626.641 653.918,626.797 652.793,627.228C652.015,627.527 651.434,627.952 651.038,628.441C650.55,629.044 650.216,629.889 650.139,630.892C650.046,632.101 650.332,633.608 650.881,634.874C651.78,636.945 653.488,638.177 654.918,638.166C655.525,638.162 656.257,637.969 657.041,637.506C658.864,636.432 661.603,633.016 664.161,631.874C667.039,630.589 673.255,630.079 676.946,628.919C679.071,628.251 680.517,627.228 681.092,626.186C681.485,625.476 681.671,624.552 681.543,623.468C681.344,621.782 680.275,619.468 678.802,617.417C677.601,615.744 676.15,614.247 674.838,613.371C673.567,612.523 672.322,612.215 671.334,612.339ZM657.813,630.932C657.057,631.036 656.313,631.119 655.64,631.22C655.35,631.263 654.983,631.35 654.721,631.417C654.722,631.591 654.729,631.802 654.756,631.955C654.821,632.336 655.029,632.831 655.207,633.207C655.427,633.048 655.665,632.865 655.858,632.698C656.468,632.169 657.127,631.551 657.813,630.932ZM671.925,616.97C671.647,617.247 671.046,617.867 670.645,618.429C669.097,620.598 667.458,623.743 665.879,626.057C665.716,626.297 665.551,626.53 665.386,626.752C668.068,626.117 671.412,625.617 674.102,624.971C675.052,624.743 675.906,624.499 676.574,624.202C676.697,624.147 676.851,624.059 676.97,623.988C676.934,623.767 676.865,623.409 676.773,623.149C676.426,622.175 675.803,621.083 675.074,620.066C674.343,619.048 673.503,618.104 672.687,617.451C672.463,617.273 672.135,617.083 671.925,616.97Z" style="fill:rgb(255,254,255);"/>
                </g>
                <g transform="matrix(2.68685,0,0,7.07963,-1386.81,-3433.99)">
                    <path d="M682.315,628.472C679.811,630.117 678.539,642.963 676.565,646.821C675.388,649.123 670.402,650.223 670.473,651.621C670.544,653.019 675.622,655.561 676.992,655.21C678.363,654.859 677.458,651.061 678.696,649.513C681.129,646.471 690.988,640.462 691.591,636.955C692.194,633.448 684.82,626.828 682.315,628.472Z" style="fill:rgb(247,88,151);fill-opacity:0.8;"/>
                    <path d="M681.053,626.571C680.112,627.189 679.081,628.824 678.337,631.161C676.925,635.593 675.931,643.037 674.524,645.788C674.142,646.533 673.074,646.959 672.169,647.444C670.948,648.099 669.819,648.723 669.218,649.309C668.427,650.08 668.144,650.931 668.185,651.736C668.213,652.274 668.403,652.895 668.855,653.517C669.348,654.196 670.307,655.002 671.465,655.689C672.824,656.494 674.447,657.162 675.602,657.4C676.41,657.567 677.092,657.538 677.564,657.417C678.343,657.217 678.959,656.765 679.408,656.055C679.841,655.369 680.078,654.189 680.187,652.878C680.245,652.183 680.129,651.382 680.489,650.932C682.288,648.681 688.222,644.807 691.323,641.54C692.759,640.027 693.643,638.54 693.849,637.339C694.04,636.233 693.81,634.911 693.151,633.555C692.268,631.741 690.589,629.785 688.773,628.343C687.295,627.168 685.72,626.345 684.421,626.064C683.09,625.776 681.935,625.992 681.053,626.571ZM675.849,650.592L675.706,650.682C675.236,650.972 674.638,651.32 674.081,651.635L675.605,652.423C675.657,651.936 675.719,651.405 675.777,651.014C675.798,650.872 675.822,650.731 675.849,650.592ZM679.441,645.668C681.626,643.826 684.555,641.629 686.804,639.568C688.061,638.417 689.182,637.452 689.333,636.571C689.378,636.312 689.245,636.027 689.106,635.713C688.79,634.994 688.26,634.246 687.636,633.54C686.685,632.462 685.512,631.484 684.415,630.903C684.15,630.763 683.767,630.637 683.52,630.564C683.406,630.761 683.258,631.035 683.163,631.263C682.819,632.088 682.506,633.132 682.203,634.287C681.243,637.946 680.388,642.589 679.441,645.668Z" style="fill:rgb(255,254,255);"/>
                </g>
                <g transform="matrix(2.68685,0,0,7.07963,-1386.81,-3433.99)">
                    <path d="M704.092,637.694C702.928,641.134 703.106,655.064 702.729,659.558C702.584,661.279 701.183,663.81 701.828,664.661C702.472,665.511 706.129,666.18 706.594,664.661C707.909,660.37 710.131,643.409 709.714,638.914C709.537,637.005 704.707,635.877 704.092,637.694Z" style="fill:rgb(247,88,151);fill-opacity:0.8;"/>
                    <path d="M701.921,636.967C701.481,638.269 701.175,640.94 701,644.087C700.699,649.5 700.692,656.442 700.446,659.369C700.344,660.582 699.581,662.206 699.422,663.321C699.256,664.482 699.525,665.408 699.998,666.032C700.627,666.862 702.877,667.893 704.874,667.843C706.848,667.793 708.336,666.792 708.786,665.325C709.463,663.114 710.389,657.644 711.077,652.144C711.77,646.604 712.212,641.037 711.996,638.705C711.91,637.787 711.455,636.9 710.641,636.175C709.7,635.337 708.183,634.707 706.74,634.543C704.402,634.277 702.475,635.331 701.921,636.967ZM707.462,639.546L706.071,639.176C705.83,640.383 705.691,642.235 705.574,644.338C705.271,649.797 705.259,656.797 705.012,659.748C704.941,660.584 704.65,661.583 704.348,662.54C704.292,662.718 704.231,662.93 704.175,663.135L704.619,663.203C705.223,660.782 705.954,656.19 706.53,651.581C707.134,646.754 707.578,641.907 707.462,639.546Z" style="fill:rgb(255,254,255);"/>
                </g>
                <g transform="matrix(3.25863,0,0,8.48042,-1790.94,-4290.9)">
                    <ellipse cx="709.674" cy="599.745" rx="35.105" ry="34.502" style="fill:rgb(247,88,151);fill-opacity:0.8;"/>
                    <path d="M709.674,563.341C699.552,563.341 690.375,567.35 683.696,573.836C676.894,580.442 672.68,589.614 672.68,599.745C672.68,609.877 676.894,619.049 683.696,625.655C690.375,632.141 699.552,636.15 709.674,636.15C719.796,636.15 728.972,632.141 735.651,625.655C742.454,619.049 746.667,609.877 746.667,599.745C746.667,589.614 742.454,580.442 735.651,573.836C728.972,567.35 719.796,563.341 709.674,563.341ZM709.674,567.146C718.773,567.146 727.024,570.744 733.029,576.575C739.113,582.483 742.889,590.684 742.889,599.745C742.889,608.807 739.113,617.008 733.029,622.916C727.024,628.747 718.773,632.345 709.674,632.345C700.574,632.345 692.323,628.747 686.318,622.916C680.234,617.008 676.458,608.807 676.458,599.745C676.458,590.684 680.234,582.483 686.318,576.575C692.323,570.744 700.574,567.146 709.674,567.146Z" style="fill:rgb(255,254,255);"/>
                </g>
            </g>
            <g transform="matrix(0.206552,-0.194903,0.0283745,0.206552,685.493,414.644)">
                <g transform="matrix(2.68685,0,0,7.07963,-1386.81,-3433.99)">
                    <path d="M728.094,632.786C733.865,636.959 741.926,642.047 745.406,645.305C747.324,647.102 747.453,651.958 748.971,652.339C750.489,652.721 754.462,649.011 754.513,647.596C754.564,646.18 750.402,645.672 749.275,643.844C747.031,640.204 744.264,627.908 741.046,625.754C737.829,623.599 733.662,629.196 729.969,630.917" style="fill:rgb(247,88,151);"/>
                    <path d="M727.114,629.948C727.369,629.203 727.917,628.559 728.689,628.199C730.152,627.517 731.671,626.121 733.19,624.98C734.768,623.796 736.363,622.843 737.841,622.472C739.557,622.041 741.195,622.234 742.732,623.264C743.848,624.011 745.043,625.55 746.08,627.648C748.263,632.066 750.159,639.458 751.805,642.201C751.879,642.254 752.147,642.442 752.315,642.534C752.868,642.836 753.483,643.091 754.029,643.345C755.112,643.849 756,644.426 756.515,644.998C757.25,645.816 757.564,646.73 757.529,647.702C757.508,648.307 757.307,649.105 756.81,649.957C756.175,651.044 754.915,652.437 753.579,653.486C751.64,655.008 749.429,655.551 748.231,655.25C747.369,655.033 746.554,654.52 745.896,653.611C745.335,652.835 744.851,651.513 744.4,650.062C744.11,649.131 743.933,648.049 743.337,647.491C742.195,646.422 740.523,645.149 738.606,643.77C734.803,641.035 730.076,637.931 726.32,635.214C724.972,634.24 724.674,632.361 725.653,631.021C726.032,630.502 726.547,630.14 727.114,629.948ZM750.166,648.212L750.184,648.196L750.156,648.182L750.166,648.212ZM744.691,640.797C743.67,638.029 742.57,634.709 741.412,631.954C740.702,630.265 740.148,628.772 739.361,628.244C739.197,628.134 739.062,628.372 738.874,628.458C738.56,628.602 738.243,628.789 737.92,628.999C736.319,630.041 734.651,631.493 733.034,632.591C736.069,634.695 739.355,636.899 742.143,638.905C743.051,639.557 743.907,640.191 744.691,640.797Z" style="fill:rgb(255,254,255);"/>
                </g>
                <g transform="matrix(2.68685,0,0,7.07963,-1386.81,-3433.99)">
                    <path d="M752.241,596.16C754.914,597.118 761.935,589.889 765.649,588.921C768.55,588.164 773.158,591.454 774.527,590.346C775.897,589.239 775.095,583.064 773.867,582.277C772.639,581.49 769.658,585.534 767.161,585.625C763.119,585.774 752.097,581.414 749.61,583.169C747.123,584.925 749.567,595.201 752.241,596.16Z" style="fill:rgb(247,88,151);"/>
                    <path d="M751.217,598.984C752.512,599.448 754.452,599.246 756.608,598.089C758.531,597.057 760.872,595.267 763.051,593.758C764.32,592.88 765.481,592.068 766.415,591.824C767.315,591.59 768.429,592.168 769.483,592.535C771.048,593.08 772.522,593.544 773.566,593.576C774.76,593.612 775.71,593.259 776.431,592.676C776.985,592.228 777.497,591.549 777.823,590.618C778.221,589.483 778.354,587.713 778.181,585.956C778.016,584.283 777.588,582.638 777.089,581.626C776.631,580.698 776.031,580.093 775.502,579.753C774.589,579.169 773.477,578.967 772.179,579.392C771.325,579.672 770.177,580.462 768.979,581.372C768.325,581.87 767.716,582.601 767.05,582.625C764.183,582.731 757.699,580.418 753.494,579.888C750.941,579.567 748.933,579.965 747.863,580.721C747.047,581.297 746.364,582.201 745.968,583.442C745.411,585.192 745.458,587.959 746.051,590.649C746.617,593.217 747.655,595.689 748.767,597.108C749.533,598.086 750.403,598.692 751.217,598.984ZM761.271,587.725C758.657,587.108 755.726,586.308 753.352,585.933C752.851,585.854 752.225,585.818 751.749,585.802C751.819,587.085 752.061,590.312 752.761,591.992C752.896,592.316 753.11,592.698 753.292,593C753.581,592.872 753.922,592.709 754.183,592.557C756.37,591.275 759.005,589.142 761.267,587.727L761.271,587.725ZM771.802,586.769L771.633,586.886L771.95,586.987L771.918,586.686L771.802,586.769Z" style="fill:rgb(255,254,255);"/>
                </g>
                <g transform="matrix(2.68685,0,0,7.07963,-1386.81,-3433.99)">
                    <path d="M745.185,574.682C748.527,573.807 752.048,561.434 754.615,558.784C756,557.354 760.364,560.232 760.586,558.784C760.809,557.336 757.493,550.517 755.948,550.094C754.403,549.671 753.466,554.844 751.316,556.245C747.752,558.568 735.589,560.957 734.567,564.03C733.546,567.102 741.844,575.556 745.185,574.682Z" style="fill:rgb(247,88,151);"/>
                    <path d="M756.32,561.491C755.929,562.108 755.529,562.966 755.078,563.922C753.614,567.023 751.987,571.034 750.348,573.663C748.963,575.886 747.332,577.224 745.953,577.585C744.775,577.893 743.235,577.753 741.574,576.995C739.863,576.215 737.883,574.74 736.16,573.012C734.053,570.9 732.36,568.41 731.769,566.501C731.364,565.193 731.391,564.022 731.702,563.087C732.146,561.752 733.63,560.211 736.048,559.015C740.029,557.046 747.111,555.397 749.661,553.734C750.297,553.32 750.602,552.278 751.019,551.427C751.749,549.941 752.528,548.645 753.247,548.031C754.345,547.093 755.531,546.866 756.749,547.199C757.315,547.354 758.024,547.714 758.723,548.396C759.44,549.093 760.309,550.314 761.095,551.714C762.057,553.428 762.918,555.409 763.309,556.771C763.616,557.841 763.65,558.715 763.57,559.237C763.31,560.933 762.32,561.866 760.667,562.148C760.039,562.254 759.095,562.184 758.031,561.904C757.587,561.788 756.823,561.608 756.32,561.491ZM750.229,560.12C747.284,561.316 742.948,562.554 739.777,563.914C739.087,564.21 738.253,564.696 737.744,565.008C738.226,565.843 739.346,567.682 740.444,568.783C741.45,569.791 742.561,570.7 743.599,571.285C743.822,571.412 744.129,571.538 744.359,571.625C744.69,571.196 745.362,570.295 745.793,569.51C747.348,566.674 748.866,562.837 750.229,560.12ZM755.806,555.323L755.778,555.374L755.936,555.373L756.07,555.378L755.922,555.108L755.806,555.323Z" style="fill:rgb(255,254,255);"/>
                </g>
                <g transform="matrix(2.68685,0,0,7.07963,-1386.81,-3433.99)">
                    <path d="M696.059,557.989C692.46,553.37 687.235,547.989 685.263,544.132C683.846,541.359 685.716,535.815 684.23,534.847C682.745,533.88 676.755,536.752 676.349,538.329C675.943,539.905 680.678,541.853 681.794,544.307C683.619,548.318 685.464,556.365 687.299,562.395" style="fill:rgb(247,88,151);"/>
                    <path d="M687.686,552.639C688.521,555.639 689.355,558.79 690.187,561.525C690.67,563.111 689.767,564.788 688.173,565.268C686.579,565.748 684.892,564.85 684.41,563.264C683.208,559.314 682.001,554.498 680.799,550.517C680.211,548.568 679.63,546.832 679.045,545.545C678.685,544.754 677.664,544.149 676.833,543.503C675.544,542.501 674.43,541.503 673.921,540.653C673.29,539.6 673.173,538.561 673.425,537.584C673.598,536.911 674.052,536.067 674.901,535.271C675.94,534.296 677.799,533.191 679.623,532.484C681.15,531.892 682.658,531.6 683.71,531.66C684.604,531.711 685.331,531.976 685.883,532.335C686.685,532.857 687.331,533.69 687.641,534.906C687.904,535.935 687.867,537.52 687.772,539.229C687.703,540.474 687.482,541.849 687.954,542.771C688.551,543.939 689.494,545.256 690.59,546.658C692.981,549.715 696.067,553.099 698.444,556.151C699.465,557.46 699.224,559.348 697.907,560.362C696.591,561.377 694.693,561.138 693.673,559.828C691.88,557.527 689.683,555.036 687.686,552.639ZM681.725,538.421L680.713,538.891L681.161,539.25L681.694,539.686L681.699,539.377L681.725,538.421Z" style="fill:rgb(255,254,255);"/>
                </g>
                <g transform="matrix(2.68685,0,0,7.07963,-1386.81,-3433.99)">
                    <path d="M668.668,594.864C667.567,594.031 663.801,597.317 661.149,597.584C657.884,597.913 651.088,595.852 649.076,596.839C647.081,597.817 647.974,602.656 649.076,603.504C650.178,604.352 653.426,602.036 655.689,601.925C658.803,601.772 665.597,603.765 667.76,602.588C669.923,601.411 669.77,595.698 668.668,594.864Z" style="fill:rgb(247,88,151);"/>
                    <path d="M670.496,592.475C669.716,591.885 668.652,591.554 667.302,591.817C666.405,591.993 665.137,592.593 663.786,593.314C662.803,593.838 661.754,594.506 660.845,594.597C658.549,594.829 654.424,593.759 651.654,593.595C649.973,593.496 648.6,593.725 647.742,594.146C646.065,594.969 644.972,596.896 644.881,599.261C644.814,600.997 645.259,602.918 645.852,604.121C646.256,604.939 646.767,605.523 647.23,605.879C647.891,606.387 648.723,606.695 649.738,606.692C650.51,606.691 651.519,606.451 652.61,606.039C653.653,605.645 654.85,604.972 655.838,604.923C658.117,604.812 662.407,605.899 665.312,605.96C666.956,605.995 668.312,605.709 669.208,605.222C670.937,604.281 672.198,601.829 672.425,599.143C672.573,597.4 672.346,595.643 671.944,594.544C671.579,593.544 671.016,592.869 670.496,592.475ZM652.375,599.69C651.944,599.647 651.457,599.625 651.056,599.613L651.119,600.132L651.949,599.835L652.375,599.69ZM666.398,598.74L665.968,598.96C665.334,599.291 664.683,599.602 664.038,599.86L664.426,599.898C664.981,599.947 665.716,599.929 666.125,599.911C666.214,599.644 666.342,599.223 666.379,598.929C666.387,598.869 666.393,598.806 666.398,598.74Z" style="fill:rgb(255,254,255);"/>
                </g>
                <g transform="matrix(2.68685,0,0,7.07963,-1386.81,-3433.99)">
                    <path d="M671.62,614.6C668.757,614.958 665.037,624.694 661.904,627.239C659.458,629.227 653.99,628.429 652.823,629.87C651.655,631.312 653.168,635.9 654.901,635.888C656.634,635.875 660.084,631.197 663.223,629.796C667.253,627.996 677.685,627.621 679.085,625.089C680.484,622.556 674.483,614.241 671.62,614.6Z" style="fill:rgb(247,88,151);"/>
                    <path d="M671.243,611.621C669.915,611.788 668.254,612.823 666.761,614.769C664.532,617.675 662.165,623.151 659.995,624.914C659.185,625.572 657.838,625.611 656.628,625.766C655.033,625.969 653.535,626.168 652.532,626.553C651.616,626.905 650.938,627.412 650.472,627.987C649.307,629.425 649.126,632.655 650.213,635.161C651.25,637.549 653.274,638.902 654.923,638.89C655.634,638.885 656.494,638.67 657.412,638.129C659.219,637.064 661.924,633.666 664.459,632.534C667.319,631.257 673.498,630.762 677.165,629.609C679.52,628.868 681.092,627.689 681.73,626.535C682.185,625.71 682.414,624.641 682.265,623.384C682.055,621.606 680.946,619.159 679.394,616.997C677.861,614.862 675.92,613.03 674.315,612.228C673.204,611.673 672.145,611.508 671.243,611.621ZM672.027,617.895C671.776,618.172 671.464,618.532 671.238,618.848C669.872,620.763 668.435,623.439 667.031,625.63C669.619,625.11 672.562,624.666 674.801,624.044C675.197,623.934 675.665,623.755 676.036,623.603C675.482,622.48 674.033,619.692 672.767,618.486C672.556,618.286 672.271,618.069 672.027,617.895Z" style="fill:rgb(255,254,255);"/>
                </g>
                <g transform="matrix(2.68685,0,0,7.07963,-1386.81,-3433.99)">
                    <path d="M682.315,628.472C679.811,630.117 678.539,642.963 676.565,646.821C675.388,649.123 670.402,650.223 670.473,651.621C670.544,653.019 675.622,655.561 676.992,655.21C678.363,654.859 677.458,651.061 678.696,649.513C681.129,646.471 690.988,640.462 691.591,636.955C692.194,633.448 684.82,626.828 682.315,628.472Z" style="fill:rgb(247,88,151);"/>
                    <path d="M681.141,651.282C681.111,651.498 680.926,652.854 680.859,653.535C680.74,654.744 680.443,655.775 680.024,656.439C679.469,657.317 678.706,657.871 677.746,658.117C677.194,658.258 676.398,658.303 675.454,658.109C674.238,657.858 672.525,657.159 671.093,656.31C669.834,655.564 668.801,654.679 668.265,653.941C667.716,653.184 667.492,652.426 667.459,651.773C667.409,650.787 667.74,649.737 668.709,648.792C669.345,648.172 670.532,647.5 671.824,646.807C672.596,646.394 673.55,646.095 673.875,645.46C675.272,642.73 676.242,635.34 677.644,630.942C678.455,628.395 679.626,626.641 680.653,625.967C681.681,625.292 683.023,625.021 684.576,625.357C685.962,625.657 687.649,626.524 689.227,627.777C691.129,629.288 692.881,631.34 693.805,633.24C694.541,634.752 694.778,636.228 694.566,637.461C694.342,638.764 693.411,640.395 691.852,642.036C688.809,645.241 683.024,649.027 681.141,651.282ZM683.866,631.587C683.647,632.111 683.374,632.808 683.195,633.425C682.319,636.436 681.579,640.483 680.782,643.642C682.616,642.162 684.647,640.561 686.312,639.036C687.062,638.348 687.726,637.684 688.208,637.055C688.387,636.821 688.582,636.645 688.616,636.449C688.648,636.264 688.482,636.081 688.372,635.855C688.129,635.357 687.78,634.849 687.376,634.355C686.515,633.301 684.791,632.158 683.866,631.587Z" style="fill:rgb(255,254,255);"/>
                </g>
                <g transform="matrix(2.68685,0,0,7.07963,-1386.81,-3433.99)">
                    <path d="M704.092,637.694C702.928,641.134 703.106,655.064 702.729,659.558C702.584,661.279 701.183,663.81 701.828,664.661C702.472,665.511 706.129,666.18 706.594,664.661C707.909,660.37 710.131,643.409 709.714,638.914C709.537,637.005 704.707,635.877 704.092,637.694Z" style="fill:rgb(247,88,151);"/>
                    <path d="M701.232,636.736C700.779,638.073 700.453,640.815 700.273,644.047C699.973,649.453 699.966,656.386 699.721,659.308C699.62,660.509 698.859,662.116 698.702,663.22C698.503,664.613 698.85,665.718 699.417,666.467C699.826,667.007 700.627,667.65 701.745,668.053C702.94,668.485 704.563,668.69 705.841,668.478C707.73,668.166 709.014,667.06 709.481,665.536C710.165,663.305 711.104,657.784 711.799,652.233C712.5,646.63 712.939,640.997 712.72,638.638C712.619,637.551 712.09,636.494 711.126,635.636C710.087,634.711 708.416,634.006 706.822,633.824C704.09,633.514 701.879,634.824 701.232,636.736ZM706.75,640.01L706.666,639.988C706.499,641.129 706.396,642.668 706.301,644.378C706.22,645.821 706.161,647.371 706.112,648.926C706.518,645.335 706.792,641.994 706.75,640.01Z" style="fill:rgb(255,254,255);"/>
                </g>
                <g transform="matrix(3.25863,0,0,8.48042,-1790.94,-4290.9)">
                    <ellipse cx="709.674" cy="599.745" rx="35.105" ry="34.502" style="fill:rgb(247,88,151);"/>
                    <path d="M709.674,562.737C699.389,562.737 690.066,566.811 683.28,573.401C676.363,580.117 672.08,589.444 672.08,599.745C672.08,610.047 676.363,619.373 683.28,626.09C690.066,632.679 699.389,636.754 709.674,636.754C719.958,636.754 729.281,632.679 736.067,626.09C742.984,619.373 747.267,610.047 747.267,599.745C747.267,589.444 742.984,580.117 736.067,573.401C729.281,566.811 719.958,562.737 709.674,562.737ZM709.674,567.75C718.611,567.75 726.715,571.283 732.613,577.01C738.583,582.807 742.29,590.854 742.29,599.745C742.29,608.637 738.583,616.684 732.613,622.481C726.715,628.208 718.611,631.741 709.674,631.741C700.737,631.741 692.632,628.208 686.734,622.481C680.764,616.684 677.057,608.637 677.057,599.745C677.057,590.854 680.764,582.807 686.734,577.01C692.632,571.283 700.737,567.75 709.674,567.75Z" style="fill:rgb(255,254,255);"/>
                </g>
            </g>
            <g transform="matrix(0.373073,-0.352033,0.0512499,0.373073,149.515,456.417)">
                <g transform="matrix(2.68685,0,0,7.07963,-1386.81,-3433.99)">
                    <path d="M728.094,632.786C733.865,636.959 741.926,642.047 745.406,645.305C747.324,647.102 747.453,651.958 748.971,652.339C750.489,652.721 754.462,649.011 754.513,647.596C754.564,646.18 750.402,645.672 749.275,643.844C747.031,640.204 744.264,627.908 741.046,625.754C737.829,623.599 733.662,629.196 729.969,630.917" style="fill:rgb(247,88,151);"/>
                    <path d="M728.313,631.138C728.219,630.438 728.583,629.728 729.26,629.412C731.649,628.299 734.233,625.55 736.632,624.355C738.524,623.413 740.337,623.276 741.979,624.375C742.956,625.029 743.964,626.404 744.871,628.239C747.091,632.732 749.032,640.27 750.7,642.975C751.095,643.616 752.07,643.928 752.9,644.304C754.012,644.807 755.008,645.333 755.511,645.892C755.991,646.426 756.206,647.019 756.183,647.655C756.167,648.093 756.006,648.666 755.645,649.284C755.077,650.257 753.94,651.495 752.744,652.434C751.953,653.055 751.135,653.543 750.444,653.793C749.723,654.053 749.072,654.079 748.561,653.951C747.978,653.804 747.435,653.444 746.989,652.828C746.491,652.139 746.088,650.954 745.687,649.666C745.327,648.509 745.001,647.209 744.26,646.516C743.086,645.415 741.368,644.103 739.396,642.684C735.593,639.95 730.867,636.846 727.112,634.13C726.366,633.591 726.201,632.55 726.743,631.809C727.115,631.299 727.726,631.062 728.313,631.138ZM752.531,647.856C752.094,647.631 751.446,647.302 750.952,647.071C749.665,646.467 748.456,645.695 747.851,644.713C746.35,642.279 744.594,636.052 742.655,631.437C741.818,629.445 741.042,627.754 740.113,627.133C739.501,626.723 738.834,626.976 738.128,627.328C735.707,628.534 733.09,631.298 730.679,632.422C730.631,632.444 730.583,632.464 730.534,632.481C734.003,634.929 738.031,637.601 741.354,639.991C743.463,641.508 745.295,642.919 746.551,644.095C747.244,644.744 747.788,645.68 748.21,646.733C748.644,647.814 748.958,649.026 749.304,649.998C749.361,650.159 749.445,650.35 749.524,650.514C749.96,650.269 750.704,649.824 751.183,649.399C751.66,648.974 752.196,648.301 752.531,647.856Z" style="fill:white;"/>
                </g>
                <g transform="matrix(2.68685,0,0,7.07963,-1386.81,-3433.99)">
                    <path d="M752.241,596.16C754.914,597.118 761.935,589.889 765.649,588.921C768.55,588.164 773.158,591.454 774.527,590.346C775.897,589.239 775.095,583.064 773.867,582.277C772.639,581.49 769.658,585.534 767.161,585.625C763.119,585.774 752.097,581.414 749.61,583.169C747.123,584.925 749.567,595.201 752.241,596.16Z" style="fill:rgb(247,88,151);"/>
                    <path d="M751.674,597.723C752.71,598.095 754.244,597.835 755.969,596.909C757.854,595.898 760.145,594.138 762.282,592.659C763.703,591.674 765.027,590.801 766.073,590.528C766.98,590.292 768.09,590.659 769.175,591.014C770.864,591.568 772.504,592.203 773.607,592.237C774.427,592.262 775.086,592.037 775.581,591.636C775.972,591.32 776.321,590.834 776.551,590.177C776.9,589.182 776.992,587.628 776.84,586.087C776.693,584.593 776.325,583.12 775.88,582.217C775.556,581.56 775.146,581.12 774.772,580.88C774.176,580.498 773.448,580.387 772.6,580.665C771.848,580.912 770.853,581.634 769.797,582.437C768.916,583.107 767.998,583.931 767.1,583.964C764.188,584.072 757.596,581.756 753.325,581.218C751.208,580.951 749.53,581.187 748.643,581.814C747.86,582.366 747.265,583.384 747.033,584.771C746.778,586.294 746.924,588.352 747.367,590.362C747.799,592.319 748.506,594.226 749.316,595.541C750.028,596.698 750.883,597.44 751.674,597.723ZM765.767,587.206C762.824,586.855 758.249,585.492 754.568,584.786C753.481,584.578 752.483,584.432 751.654,584.415C751.19,584.406 750.805,584.364 750.577,584.525C750.489,584.586 750.481,584.719 750.438,584.852C750.345,585.145 750.293,585.49 750.266,585.869C750.188,586.978 750.34,588.327 750.632,589.65C750.977,591.217 751.518,592.752 752.166,593.806C752.392,594.172 752.557,594.506 752.807,594.596C752.92,594.637 753.05,594.551 753.211,594.501C753.706,594.35 754.264,594.065 754.867,593.711C757.063,592.424 759.712,590.283 761.984,588.861C763.18,588.113 764.297,587.555 765.226,587.313C765.401,587.267 765.582,587.231 765.767,587.206ZM773.032,584.263C772.388,584.725 771.369,585.449 770.63,585.948C769.675,586.592 768.675,587.077 767.727,587.233C768.072,587.281 768.421,587.35 768.773,587.436C770.068,587.752 771.408,588.292 772.547,588.649C772.831,588.738 773.194,588.813 773.447,588.86C773.474,588.763 773.497,588.657 773.51,588.567C773.6,587.938 773.589,587.172 773.514,586.412C773.447,585.729 773.214,584.864 773.032,584.263Z" style="fill:white;"/>
                </g>
                <g transform="matrix(2.68685,0,0,7.07963,-1386.81,-3433.99)">
                    <path d="M745.185,574.682C748.527,573.807 752.048,561.434 754.615,558.784C756,557.354 760.364,560.232 760.586,558.784C760.809,557.336 757.493,550.517 755.948,550.094C754.403,549.671 753.466,554.844 751.316,556.245C747.752,558.568 735.589,560.957 734.567,564.03C733.546,567.102 741.844,575.556 745.185,574.682Z" style="fill:rgb(247,88,151);"/>
                    <path d="M755.714,560.051C755.135,560.712 754.531,561.928 753.858,563.353C752.416,566.409 750.818,570.365 749.203,572.957C748.051,574.806 746.757,575.989 745.611,576.289C744.674,576.534 743.456,576.379 742.135,575.777C740.546,575.052 738.716,573.673 737.116,572.069C735.508,570.457 734.136,568.623 733.422,567.057C732.794,565.677 732.676,564.424 732.981,563.508C733.348,562.403 734.647,561.205 736.647,560.215C740.672,558.225 747.822,556.536 750.4,554.855C751.202,554.332 751.703,553.089 752.23,552.015C752.862,550.726 753.502,549.58 754.125,549.047C754.837,548.439 755.601,548.275 756.391,548.491C756.792,548.601 757.285,548.871 757.781,549.353C758.43,549.985 759.207,551.099 759.919,552.367C760.827,553.985 761.644,555.853 762.014,557.139C762.25,557.962 762.3,558.633 762.238,559.035C762.078,560.082 761.461,560.653 760.44,560.827C759.709,560.951 758.317,560.563 756.953,560.222C756.548,560.121 755.906,560.066 755.714,560.051ZM755.866,552.345C755.573,552.871 755.19,553.571 754.907,554.132C754.181,555.569 753.29,556.945 752.231,557.636C749.9,559.156 743.985,560.737 739.736,562.477C738.67,562.914 737.72,563.359 736.998,563.826C736.599,564.085 736.247,564.272 736.154,564.551C736.054,564.853 736.26,565.231 736.467,565.685C737.045,566.955 738.185,568.421 739.488,569.727C740.783,571.025 742.242,572.169 743.528,572.755C744.007,572.973 744.421,573.163 744.76,573.074C745.066,572.994 745.311,572.66 745.619,572.275C746.159,571.599 746.694,570.696 747.228,569.682C749.47,565.424 751.683,559.415 753.411,557.631C754.151,556.867 755.311,556.585 756.656,556.774C757.169,556.846 757.873,557.005 758.498,557.16C758.225,556.437 757.855,555.618 757.447,554.82C757.025,553.996 756.34,553.001 755.866,552.345Z" style="fill:white;"/>
                </g>
                <g transform="matrix(2.68685,0,0,7.07963,-1386.81,-3433.99)">
                    <path d="M704.092,637.694C702.928,641.134 703.106,655.064 702.729,659.558C702.584,661.279 701.183,663.81 701.828,664.661C702.472,665.511 706.129,666.18 706.594,664.661C707.909,660.37 710.131,643.409 709.714,638.914C709.537,637.005 704.707,635.877 704.092,637.694Z" style="fill:rgb(247,88,151);"/>
                    <path d="M702.509,637.164C702.078,638.436 701.79,641.047 701.619,644.121C701.317,649.541 701.31,656.49 701.064,659.42C700.961,660.644 700.196,662.283 700.035,663.408C699.898,664.371 700.101,665.143 700.493,665.661C700.768,666.023 701.285,666.428 701.997,666.715C702.795,667.037 703.881,667.251 704.858,667.226C706.526,667.184 707.813,666.385 708.193,665.145C708.864,662.952 709.779,657.524 710.462,652.068C711.148,646.583 711.593,641.07 711.378,638.761C711.315,638.083 711.009,637.433 710.473,636.871C709.803,636.169 708.708,635.591 707.549,635.312C706.299,635.01 705.001,635.071 704.112,635.464C703.324,635.812 702.77,636.39 702.509,637.164ZM708.06,639.182C707.966,639.109 707.638,638.857 707.4,638.754C706.936,638.553 706.398,638.433 705.919,638.438C705.822,638.439 705.693,638.455 705.602,638.469C705.274,639.65 705.095,641.805 704.956,644.304C704.652,649.757 704.641,656.749 704.394,659.697C704.327,660.493 704.044,661.444 703.756,662.356C703.639,662.728 703.516,663.229 703.433,663.587L705.1,663.816C705.729,661.525 706.527,656.602 707.146,651.657C707.784,646.556 708.237,641.431 708.06,639.182Z" style="fill:white;"/>
                </g>
                <g transform="matrix(3.25863,0,0,8.48042,-1790.94,-4290.9)">
                    <ellipse cx="709.674" cy="599.745" rx="35.105" ry="34.502" style="fill:rgb(247,88,151);"/>
                    <path d="M709.674,563.856C699.69,563.856 690.639,567.809 684.051,574.207C677.346,580.718 673.191,589.759 673.191,599.745C673.191,609.732 677.346,618.773 684.051,625.284C690.639,631.682 699.69,635.635 709.674,635.635C719.657,635.635 728.708,631.682 735.296,625.284C742.002,618.773 746.156,609.732 746.156,599.745C746.156,589.759 742.002,580.718 735.296,574.207C728.708,567.809 719.657,563.856 709.674,563.856ZM709.674,566.631C718.911,566.631 727.288,570.285 733.384,576.204C739.565,582.207 743.401,590.539 743.401,599.745C743.401,608.952 739.565,617.284 733.384,623.287C727.288,629.206 718.911,632.86 709.674,632.86C700.436,632.86 692.059,629.206 685.963,623.287C679.782,617.284 675.947,608.952 675.947,599.745C675.947,590.539 679.782,582.207 685.963,576.204C692.059,570.285 700.436,566.631 709.674,566.631Z" style="fill:white;"/>
                </g>
            </g>
            <g transform="matrix(0.484888,0,0,1.18333,1359.04,639.932)">
                <path d="M1367.95,202.926C1357.52,206.971 1351.62,222.598 1351.15,238.031C1350.88,246.903 1352.37,255.668 1355.68,262.021C1358.52,267.465 1362.67,271.167 1368.13,271.888C1387.36,274.423 1435.64,268.974 1483.72,261.023C1531.14,253.182 1578.37,242.92 1597.3,235.577C1601.08,234.112 1604.11,230.806 1606.3,226.442C1608.95,221.168 1610.38,214.339 1610.53,207.587C1610.67,200.553 1609.42,193.611 1606.75,188.583C1604.44,184.234 1601.08,181.288 1596.71,180.711C1577.54,178.184 1529.55,180.05 1481.7,184.422C1434.25,188.756 1386.94,195.562 1367.95,202.926ZM1368.8,205.448C1387.68,198.125 1434.73,191.403 1481.91,187.093C1529.55,182.741 1577.32,180.856 1596.41,183.373C1599.99,183.845 1602.69,186.345 1604.58,189.911C1607.05,194.569 1608.17,201.011 1608.03,207.526C1607.9,213.842 1606.58,220.236 1604.1,225.169C1602.23,228.906 1599.69,231.801 1596.46,233.055C1577.6,240.368 1530.56,250.565 1483.34,258.373C1435.54,266.277 1387.55,271.746 1368.44,269.227C1363.77,268.611 1360.28,265.363 1357.86,260.712C1354.75,254.732 1353.39,246.47 1353.64,238.119C1353.89,230.052 1355.65,221.894 1358.86,215.6C1361.32,210.785 1364.62,207.065 1368.8,205.448Z" style="fill:white;"/>
            </g>
            <g transform="matrix(0.484888,0,0,1.35971,1359.1,454.023)">
                <path d="M1614,441.172C1608.38,477.243 1613.04,616.872 1619.78,652.264C1621.94,663.621 1652.66,664.95 1654.44,653.527C1660.05,617.456 1660.2,471.232 1653.47,435.84C1650.98,422.799 1616.04,428.055 1614,441.172Z" style="fill:none;stroke:white;stroke-width:2.77px;"/>
            </g>
            <g transform="matrix(0.484888,0,0,1.09469,1359.1,578.023)">
                <path d="M938.315,703.793C1056.88,683.674 1529.1,656.116 1650.56,676.687C1700.33,685.116 1716.82,818.775 1667.05,827.219C1548.49,847.337 1060.63,817.967 939.175,797.395C908.411,792.185 907.552,709.012 938.315,703.793Z" style="fill:none;stroke:white;stroke-width:3.52px;"/>
            </g>
            <g transform="matrix(0.484888,0,0,1.09469,1359.1,578.023)">
                <path d="M1006.51,507.979C1108.4,463.871 1513.32,405.314 1615.71,432.188C1692.15,452.252 1693.35,637.827 1620.83,669.224C1518.94,713.333 1106.77,723.711 1004.38,696.837C943.485,680.853 948.736,532.99 1006.51,507.979Z" style="fill:none;stroke:white;stroke-width:3.52px;"/>
            </g>
            <g transform="matrix(0.484888,0,0,1.09469,1359.1,578.023)">
                <path d="M1003.89,477.533C992.866,479.661 996.774,511.75 1007.98,510.976C1116.07,503.517 1545.29,453.457 1652.45,432.774C1667.48,429.872 1666.23,385.821 1650.96,386.875C1542.87,394.334 1111.06,456.849 1003.89,477.533Z" style="fill:none;stroke:white;stroke-width:2.86px;"/>
            </g>
            <g transform="matrix(0.484888,0,0,1.09469,1359.1,578.023)">
                <rect x="1411.9" y="287.801" width="11.665" height="56.983" style="fill:none;stroke:white;stroke-width:3.52px;"/>
            </g>
            <g transform="matrix(0.484888,0,0,1.22288,1359.1,534.32)">
                <rect x="1441.02" y="283.212" width="11.642" height="57.721" style="fill:none;stroke:white;stroke-width:3.35px;"/>
            </g>
            <g transform="matrix(0.484888,0,0,1.23033,1359.1,532.652)">
                <rect x="1471.56" y="276.95" width="10.742" height="57.536" style="fill:none;stroke:white;stroke-width:3.34px;"/>
            </g>
            <g transform="matrix(0.484888,0,0,1.24094,1359.1,530.019)">
                <rect x="1503.65" y="273.915" width="10.25" height="54.311" style="fill:none;stroke:white;stroke-width:3.32px;"/>
            </g>
            <g transform="matrix(0.484888,0,0,1.25622,1359.1,525.324)">
                <rect x="1538.64" y="269.869" width="10.744" height="56.372" style="fill:none;stroke:white;stroke-width:3.3px;"/>
            </g>
            <g transform="matrix(0.484888,0,0,1.24762,1359.1,529.629)">
                <rect x="1565.15" y="270.686" width="10.154" height="45.749" style="fill:none;stroke:white;stroke-width:3.31px;"/>
            </g>
            <g transform="matrix(0.484888,0,0,1.09469,1359.1,578.023)">
                <rect x="1576.65" y="280.877" width="6.46" height="36.178" style="fill:none;stroke:white;stroke-width:3.52px;"/>
            </g>
            <g transform="matrix(0.484888,0,0,1.82301,1359.1,348.849)">
                <rect x="1588.36" y="291.373" width="8.354" height="23.287" style="fill:none;stroke:white;stroke-width:2.66px;"/>
            </g>
            <g transform="matrix(0.484888,0,0,1.25783,1359.1,521.24)">
                <rect x="1385.02" y="299.012" width="9.966" height="49.045" style="fill:none;stroke:white;stroke-width:3.3px;"/>
            </g>
            <g transform="matrix(0.484888,0,0,1.23151,1359.1,530.201)">
                <rect x="1368.46" y="309.691" width="8.377" height="39.839" style="fill:none;stroke:white;stroke-width:3.34px;"/>
            </g>
            <g transform="matrix(0.484888,0,0,1.09469,1359.1,578.023)">
                <path d="M1359.56,289.102C1362.25,285.123 1370.86,271.97 1379.95,270.303C1417.39,263.436 1546.73,248.286 1584.18,247.904C1593.74,247.806 1601.82,260.783 1604.62,268.006C1607.43,275.228 1603.24,289.407 1600.99,291.239C1598.73,293.071 1593.5,280.448 1591.1,278.996C1589.47,278.008 1588.5,282.439 1586.6,282.528C1584.58,282.622 1580.22,281.395 1578.98,279.559C1577.73,277.723 1581.16,273.284 1579.14,271.512C1577.02,269.642 1568.45,270.028 1566.21,268.338C1564.36,266.934 1567.73,262.561 1565.73,261.371C1563.58,260.093 1555.44,259.458 1553.32,260.669C1551.19,261.88 1555.36,267.417 1553,268.637C1550.43,269.965 1541.29,268.951 1537.9,268.637C1536.04,268.465 1534.46,267.078 1532.62,266.756C1529.54,266.217 1521.82,264.511 1519.44,265.402C1517.33,266.196 1520.47,271.291 1518.36,272.103C1515.38,273.246 1504.45,273.533 1501.6,272.26C1499.23,271.198 1503.73,265.381 1501.29,264.467C1498.51,263.42 1487.71,264.577 1484.9,265.98C1482.84,267.01 1486.36,271.623 1484.43,272.884C1481.96,274.499 1472.89,276.445 1470.04,275.675C1467.5,274.989 1469.86,268.923 1467.31,268.262C1464.74,267.593 1456.7,269.814 1454.58,271.664C1452.65,273.351 1456.75,277.982 1454.58,279.361C1451.5,281.329 1439.42,283.783 1436.06,283.473C1434.01,283.284 1436.39,278.151 1434.43,277.503C1432.43,276.842 1425.81,277.831 1424.08,279.508C1422.36,281.186 1426.22,285.937 1424.08,287.568C1421.58,289.483 1411.9,291.398 1409.04,290.996C1406.99,290.707 1408.63,285.011 1406.92,285.152C1405.22,285.293 1400.52,289.692 1398.82,291.84C1397.46,293.551 1398.76,297.355 1396.69,298.039C1393.85,298.974 1385.4,297.406 1381.8,297.45C1379.54,297.478 1376.03,296.64 1375.07,298.305C1374.12,299.97 1377.6,305.201 1376.08,307.439C1374.56,309.678 1367.99,313.947 1365.95,311.737C1363.9,309.526 1364.87,297.947 1363.81,294.175C1363.21,292.053 1358.33,290.928 1359.56,289.102Z" style="fill:none;stroke:white;stroke-width:3.52px;"/>
            </g>
            <g transform="matrix(0.484888,0,0,1.09469,1359.1,578.023)">
                <path d="M1038.21,404.335C1141.09,384.582 1549.84,317.31 1653.37,302.696C1658.38,301.988 1664.34,315.695 1659.37,316.65C1556.49,336.403 1139.63,406.598 1036.11,421.212C1030.49,422.005 1032.64,405.404 1038.21,404.335Z" style="fill:none;stroke:white;stroke-width:3.08px;"/>
            </g>
            <g transform="matrix(0.484888,0,0,1.09469,1359.1,578.023)">
                <path d="M1040.81,517.366C1037.09,547.14 1035,663.794 1037.89,693.08C1038.56,699.801 1057.32,699.782 1058.16,693.08C1061.88,663.306 1063.12,543.72 1060.23,514.434C1059.59,507.919 1041.62,510.869 1040.81,517.366Z" style="fill:none;stroke:white;stroke-width:4.18px;"/>
            </g>
            <g transform="matrix(0.484888,0,0,1.09469,1359.1,578.023)">
                <path d="M1104.04,509.886C1100.09,539.822 1099.63,659.57 1103.09,689.555C1103.91,696.735 1123.82,696.963 1124.77,689.798C1128.72,659.862 1130.24,539.926 1126.78,509.941C1125.91,502.409 1105.03,502.37 1104.04,509.886Z" style="fill:none;stroke:white;stroke-width:4.18px;"/>
            </g>
            <g transform="matrix(0.484888,0,0,1.09469,1359.1,578.023)">
                <path d="M1175.51,503.451C1171.45,534.089 1167.85,654.641 1171.19,685.292C1172.07,693.397 1194.49,695.437 1195.56,687.354C1199.62,656.717 1198.88,532.118 1195.54,501.468C1194.81,494.801 1176.39,496.803 1175.51,503.451Z" style="fill:none;stroke:white;stroke-width:4.18px;"/>
            </g>
            <g transform="matrix(0.484888,0,0,1.09469,1359.1,578.023)">
                <path d="M1246.44,492.983C1242.64,524.526 1241.63,651.514 1245.42,683.599C1246.35,691.485 1268.22,693.375 1269.17,685.492C1272.97,653.949 1272.02,526.428 1268.23,494.343C1267.38,487.115 1247.31,485.757 1246.44,492.983Z" style="fill:none;stroke:white;stroke-width:4.18px;"/>
            </g>
            <g transform="matrix(0.484888,0,0,1.09469,1359.1,578.023)">
                <path d="M1325.36,482.182C1323.32,515.361 1318.44,645.353 1322.45,677.679C1323.56,686.618 1348.3,685.074 1349.43,676.138C1353.23,646.012 1347.75,529.845 1345.29,496.923C1344.76,489.88 1337.96,481.063 1334.64,478.606C1331.98,476.633 1325.56,478.871 1325.36,482.182Z" style="fill:none;stroke:white;stroke-width:4.18px;"/>
            </g>
            <g transform="matrix(0.484888,0,0,1.09469,1359.1,578.023)">
                <path d="M1410.61,468.94C1406.28,468.546 1404.27,485.434 1404.01,494.101C1402.98,528.252 1400.37,643.875 1404.45,673.849C1405.52,681.777 1427.31,681.866 1428.45,673.946C1432.7,644.381 1432.91,530.63 1429.94,496.463C1428.97,485.293 1414.93,469.334 1410.61,468.94Z" style="fill:none;stroke:white;stroke-width:4.18px;"/>
            </g>
            <g transform="matrix(0.484888,0,0,1.09469,1359.1,578.023)">
                <path d="M1491.88,468.232C1489.48,480.389 1489.21,510.275 1489.05,531.328C1488.81,564.505 1485.36,644.891 1490.42,667.296C1492.56,676.745 1518.22,675.368 1519.44,665.758C1523.54,633.512 1517.68,508.387 1515.02,473.824C1514.52,467.419 1507.34,459.316 1503.48,458.384C1499.62,457.452 1492.86,463.256 1491.88,468.232Z" style="fill:none;stroke:white;stroke-width:4.18px;"/>
            </g>
            <g transform="matrix(0.484888,0,0,1.09469,1359.1,578.023)">
                <path d="M1585.19,453.03C1582.66,488.566 1579.67,625.016 1583.43,659.792C1584.31,667.885 1606.86,669.776 1607.78,661.688C1611.53,628.722 1607.47,497.848 1605.94,461.997C1605.7,456.311 1602.07,448.072 1598.61,446.578C1595.15,445.083 1585.54,448.079 1585.19,453.03Z" style="fill:none;stroke:white;stroke-width:4.18px;"/>
            </g>
            <g transform="matrix(0.484888,0,0,1.09469,1359.1,578.023)">
                <path d="M1006.4,515.306C1002.34,543.715 1002.38,655.62 1006.38,683.99C1007.5,691.937 1029.27,693.47 1030.41,685.525C1034.46,657.116 1034.71,541.908 1030.71,513.538C1029.58,505.492 1007.55,507.262 1006.4,515.306Z" style="fill:none;stroke:white;stroke-width:1.06px;"/>
            </g>
            <g transform="matrix(0.484888,0,0,1.09469,1359.1,578.023)">
                <path d="M990.523,469.064C1039.09,448.825 1180.18,373.048 1283.54,357.894C1396.52,341.329 1604.33,365.256 1668.41,369.679C1673.32,370.018 1672.86,383.642 1668,384.429C1555.29,402.703 1105.04,465.221 992.131,479.327C988.695,479.756 987.327,470.396 990.523,469.064Z" style="fill:none;stroke:white;stroke-width:2.86px;"/>
            </g>
            <g transform="matrix(0.484888,0,0,1.09469,1359.1,578.023)">
                <path d="M1020.98,466.027C962.723,464.03 1190.98,380.539 1283.54,367.444C1385.56,353.011 1676.86,362.999 1633.1,379.429C1589.34,395.86 1079.24,468.025 1020.98,466.027Z" style="fill:none;stroke:white;stroke-width:2.86px;"/>
            </g>
            <g transform="matrix(0.484888,0,0,1.09469,1359.1,578.023)">
                <path d="M941.512,440.795C937.347,443.191 935.812,447.179 935.638,451.989C935.325,460.694 939.804,472.285 939.62,480.982C939.011,509.721 932.78,581.226 931.612,637.265C931,666.605 931.797,691.727 935.459,704.378C936.694,708.643 939.65,712.06 943.747,714.6C950.59,718.843 960.663,720.654 970.717,720.161C980.626,719.675 990.507,716.952 997.241,712.217C1001.2,709.432 1004.09,705.941 1005.36,701.833C1009.27,689.21 1011.02,664.176 1011.51,635.042C1012.47,577.343 1008.55,503.492 1007.14,478.712C1007.03,476.805 1005.86,475.879 1003.95,475.766C1001.65,475.63 998.052,476.766 995.216,477.247C993.927,477.466 992.829,477.628 992.228,477.208C991.073,476.4 989.96,474.511 989.387,472.604C988.846,470.804 988.66,468.91 989.951,468.196C992.583,466.739 997.278,464.869 1003.02,462.784C1020.75,456.346 1048.34,447.919 1056.72,443.501C1058.35,442.638 1059.17,440.758 1059.27,438.59C1059.4,435.895 1058.38,432.793 1056.75,431.163C1055.1,429.507 1051.86,427.241 1048.2,425.601C1045.03,424.184 1041.55,423.242 1038.51,423.503C1027.5,424.447 1002.36,426.903 979.944,430.623C963.467,433.358 948.458,436.799 941.512,440.795ZM942.393,442.858C949.228,438.926 964.009,435.594 980.224,432.903C1002.59,429.191 1027.67,426.742 1038.65,425.799C1041.43,425.561 1044.6,426.458 1047.49,427.75C1050.9,429.276 1053.92,431.363 1055.45,432.904C1056.46,433.918 1057.13,435.714 1057.27,437.444C1057.41,439.104 1057.11,440.765 1055.89,441.405C1047.56,445.804 1020.08,454.176 1002.43,460.586C996.57,462.714 991.782,464.632 989.097,466.117C987.259,467.134 986.731,469.418 987.176,471.951C987.681,474.822 989.446,477.95 991.205,479.18C992.071,479.786 993.644,479.841 995.503,479.526C998.215,479.066 1001.65,477.935 1003.85,478.065C1004.55,478.106 1005.12,478.169 1005.17,478.863C1006.57,503.613 1010.49,577.371 1009.52,634.997C1009.04,663.809 1007.36,688.571 1003.49,701.054C1002.36,704.712 999.74,707.767 996.214,710.247C989.722,714.813 980.186,717.392 970.633,717.861C960.962,718.335 951.264,716.65 944.681,712.569C941.08,710.336 938.424,707.394 937.339,703.645C933.72,691.143 932.99,666.313 933.595,637.32C934.763,581.283 940.994,509.778 941.602,481.038C941.786,472.353 937.307,460.779 937.62,452.085C937.762,448.136 938.972,444.826 942.393,442.858Z" style="fill:white;"/>
            </g>
            <g transform="matrix(0.484888,0,0,1.09469,1359.1,578.023)">
                <path d="M1452.69,91.194C1450.16,105.177 1445.45,133.097 1453.27,140.667C1461.09,148.237 1492.27,145.077 1499.61,136.615C1506.95,128.153 1500.5,103.265 1497.33,89.894C1494.45,77.75 1485.43,61.911 1480.62,56.391C1477.95,53.334 1471,53.611 1468.46,56.774C1463.8,62.575 1454.94,78.777 1452.69,91.194Z" style="fill:none;stroke:white;stroke-width:3.52px;"/>
            </g>
            <g transform="matrix(0.484888,0,0,1.09469,1359.1,578.023)">
                <path d="M1434.3,748.014C1430.82,760.527 1426.43,788.587 1434.88,796.62C1443.33,804.654 1476.68,804.335 1484.99,796.214C1493.3,788.093 1489.61,760.34 1484.74,747.895C1479.98,735.736 1478.53,720.173 1455.75,721.546C1441.31,722.417 1437.34,737.073 1434.3,748.014Z" style="fill:none;stroke:white;stroke-width:3.74px;"/>
            </g>
            <g transform="matrix(0.484888,0,0,1.09469,1359.1,578.023)">
                <path d="M1523.48,748.358C1523.4,763.668 1515.13,786.691 1523.25,794.286C1531.37,801.881 1564.1,802.206 1572.22,793.928C1580.34,785.651 1576.23,756.995 1571.98,744.621C1568.13,733.427 1568.04,719.474 1546.69,719.687C1526.54,719.887 1531.22,738.801 1523.48,748.358" style="fill:none;stroke:white;stroke-width:3.74px;"/>
            </g>
            <g transform="matrix(0.501065,0,0,1.09469,1336.73,578.023)">
                <path d="M1382.91,251.237C1382.37,251.409 1382.9,250.097 1382.9,249.526C1382.9,186.795 1429.3,135.865 1486.46,135.865C1538.67,135.865 1576.12,220.398 1578.2,233.233C1580.28,246.068 1533.02,212.876 1498.94,212.876C1451.32,212.876 1402.25,245.129 1382.91,251.237Z" style="fill:none;stroke:white;stroke-width:3.45px;"/>
            </g>
            <g transform="matrix(0.484888,0,0,1.09469,1359.1,578.023)">
                <path d="M1379.61,255.654C1399,245.633 1449.5,211.525 1496.84,211.525C1529.95,211.525 1570.79,227.726 1585.44,234.207C1590.38,236.395 1589.95,248.965 1584.74,250.413C1577.09,252.541 1548.41,247.383 1539.54,246.973C1536.83,246.848 1534.13,247.478 1531.47,247.952C1507.66,252.182 1421.88,268.403 1396.72,272.354C1391.4,273.191 1383.41,274.437 1380.56,271.654C1377.71,268.871 1374.87,258.108 1379.61,255.654Z" style="fill:none;stroke:white;stroke-width:3.52px;"/>
            </g>
            <g transform="matrix(0.510665,0,0,1.19508,1320.99,545.733)">
                <ellipse cx="1461.16" cy="232.41" rx="26.444" ry="23.512" style="fill:none;stroke:white;stroke-width:3.29px;"/>
            </g>
            <g transform="matrix(0.588962,0,0,1.54359,466.439,-496.832)">
                <text x="836.239px" y="881.944px" style="font-family:'Futura-Medium', 'Futura', sans-serif;font-weight:500;font-size:184.878px;fill:white;">HELP WITH C-1<tspan x="2116.57px " y="881.944px ">9</tspan></text>
            </g>
            <g transform="matrix(0.581412,0,0,1.5238,477.537,-119.837)">
                <text x="836.239px" y="744.444px" style="font-family:'Futura-Medium', 'Futura', sans-serif;font-weight:500;font-size:51.355px;fill:white;">T<tspan x="858.907px 887.318px 913.121px 941.281px " y="744.444px 744.444px 744.444px 744.444px ">echn</tspan>ical suppor<tspan x="1228.47px 1242.52px 1258.36px 1274.24px 1305.11px " y="744.444px 744.444px 744.444px 744.444px 744.444px ">t for</tspan> businesses and c<tspan x="1727.31px 1755.47px 1786.26px 1806.24px 1819.03px " y="744.444px 744.444px 744.444px 744.444px 744.444px ">harit</tspan>ies in N<tspan x="2011.46px 2042.63px 2056.67px " y="744.444px 744.444px 744.444px ">ott</tspan>ingham</text>
            </g>
            <g transform="matrix(0.484888,0,0,1.09469,1359.1,578.023)">
                <path d="M1065.27,796.385C1059.8,788.286 1062.25,758.773 1065.02,748.472C1066.92,741.429 1073.29,734.119 1081.93,734.577C1092.21,735.123 1095.54,740.476 1097.14,746.774C1099.79,757.189 1103.16,788.796 1097.85,797.065C1092.53,805.333 1070.74,804.483 1065.27,796.385Z" style="fill:none;stroke:white;stroke-width:3.74px;"/>
            </g>
            <g transform="matrix(0.484888,0,0,1.09469,1359.1,578.023)">
                <path d="M1131.1,748.35C1125.11,756.374 1124.99,789.275 1130.88,797.419C1136.77,805.564 1160.44,805.24 1166.44,797.216C1172.44,789.192 1172.77,757.418 1166.88,749.274C1160.99,741.129 1137.1,740.326 1131.1,748.35Z" style="fill:none;stroke:white;stroke-width:3.74px;"/>
            </g>
            <g transform="matrix(0.484888,0,0,1.09469,1359.1,578.023)">
                <path d="M1201.35,751.026C1195.02,758.823 1195.6,789.667 1202.17,797.325C1208.75,804.982 1234.48,804.767 1240.81,796.97C1247.15,789.173 1246.74,758.199 1240.16,750.541C1233.59,742.884 1207.69,743.229 1201.35,751.026Z" style="fill:none;stroke:white;stroke-width:3.74px;"/>
            </g>
            <g transform="matrix(0.484888,0,0,1.09469,1359.1,578.023)">
                <path d="M1275.34,747.183C1268.46,755.223 1267.83,787.682 1274.66,796.006C1281.49,804.329 1309.42,805.161 1316.31,797.121C1323.19,789.081 1322.78,756.088 1315.95,747.765C1309.13,739.442 1282.22,739.143 1275.34,747.183Z" style="fill:none;stroke:white;stroke-width:3.74px;"/>
            </g>
            <g transform="matrix(0.484888,0,0,1.09469,1359.1,578.023)">
                <path d="M1354.89,748.12C1354.44,757.261 1347.18,789.452 1354.43,797.671C1361.68,805.89 1391.21,805.653 1398.38,797.433C1405.54,789.212 1404.29,757.448 1397.41,748.348C1390.54,739.247 1361.07,726.099 1357.14,742.828C1356.73,744.592 1354.99,746.206 1354.89,748.12Z" style="fill:none;stroke:white;stroke-width:3.74px;"/>
            </g>
        </g>
    </g>
</svg>
